<svg width="2202" height="973" viewBox="0 0 2202 973" fill="none" xmlns="http://www.w3.org/2000/svg">
<path d="M555.195 36.4873C747.971 58.988 1037.44 189.127 1470.42 449.404C1637.05 549.137 1706.99 575.286 1842.6 588.665C2006.79 605.084 2102.88 547.312 2124.16 417.782C2144.84 297.981 2062.13 204.938 1949.63 221.357C1928.95 225.006 1915.57 231.695 1896.72 249.331C1874.83 270.615 1872.4 275.48 1876.04 293.116C1877.87 304.062 1887.6 320.482 1896.72 330.212C1910.71 345.415 1911.32 347.239 1899.76 341.158C1842.6 311.36 1852.33 241.425 1919.22 207.37C1959.36 186.694 2026.86 185.478 2068.21 204.33C2214.77 272.44 2220.85 516.298 2078.55 613.598C2029.29 647.045 1987.33 657.991 1899.76 661.64C1804.29 665.289 1724.01 653.734 1636.44 623.936C1562.86 598.395 1552.52 592.922 1384.07 492.581C1123.18 337.509 986.964 261.494 842.838 191.559C655.535 100.949 564.316 74.7992 414.109 68.718C316.809 65.0692 260.253 71.1505 193.968 93.6511C171.467 100.949 152.615 106.422 152.615 105.205C152.615 96.0836 253.564 57.1636 308.295 45.6092C360.594 34.0548 493.166 29.1898 555.195 36.4873Z" fill="black"/>
<path d="M392.825 142.909C588.033 173.316 774.728 256.629 1262.45 527.244C1575.63 701.168 1711.24 767.454 1795.16 785.089C1838.34 794.211 1828.61 797.86 1778.74 791.171C1649.82 772.927 1526.37 721.236 1067.24 496.838C920.07 425.079 771.079 353.321 735.808 338.117C564.316 263.926 431.745 222.574 344.175 214.668C235.32 205.546 161.129 251.156 125.249 349.672C81.4643 468.864 138.02 579.543 278.497 648.869C329.58 674.411 340.526 677.451 385.527 679.884C429.312 681.708 438.434 680.492 462.759 667.721C517.491 637.923 550.938 567.381 535.735 511.433C526.004 474.337 494.382 437.242 456.678 418.39C417.15 398.322 419.582 397.106 465.192 413.525C502.288 427.512 541.208 465.216 557.019 502.311C561.884 514.474 566.141 541.839 566.141 562.516C566.141 681.708 460.327 755.291 327.755 727.926C164.778 694.479 37.6792 560.691 37.0711 422.039C37.0711 382.511 55.923 308.319 76.5993 267.575C96.6675 227.439 141.061 183.046 177.548 165.41C208.563 150.207 287.619 133.179 321.674 134.396C334.445 135.004 366.067 138.652 392.825 142.909Z" fill="black"/>
</svg>
