<svg width="2202" height="973" viewBox="0 0 2202 973" fill="none" xmlns="http://www.w3.org/2000/svg">
<path d="M1646.8 36.4874C1454.03 58.988 1164.56 189.127 731.574 449.404C564.948 549.137 495.014 575.286 359.402 588.665C195.208 605.084 99.1244 547.312 77.84 417.782C57.1638 297.981 139.869 204.938 252.372 221.357C273.048 225.006 286.427 231.696 305.279 249.331C327.171 270.616 329.604 275.481 325.955 293.116C324.131 304.062 314.401 320.482 305.279 330.212C291.292 345.415 290.684 347.239 302.238 341.158C359.402 311.36 349.672 241.426 282.778 207.371C242.642 186.694 175.14 185.478 133.788 204.33C-12.7706 272.44 -18.8518 516.298 123.449 613.598C172.708 647.045 214.668 657.991 302.238 661.64C397.714 665.289 477.986 653.734 565.556 623.936C639.139 598.395 649.478 592.922 817.928 492.581C1078.81 337.509 1215.03 261.494 1359.16 191.559C1546.46 100.949 1637.68 74.7993 1787.89 68.718C1885.19 65.0693 1941.74 71.1505 2008.03 93.6512C2030.53 100.949 2049.38 106.422 2049.38 105.206C2049.38 96.0837 1948.43 57.1637 1893.7 45.6093C1841.4 34.0549 1708.83 29.1899 1646.8 36.4874Z" fill="black"/>
<path d="M1809.17 142.909C1613.96 173.316 1427.27 256.629 939.553 527.244C626.369 701.168 490.757 767.454 406.836 785.089C363.659 794.211 373.389 797.86 423.255 791.171C552.177 772.927 675.627 721.236 1134.76 496.838C1281.93 425.079 1430.92 353.321 1466.19 338.117C1637.68 263.926 1770.25 222.574 1857.82 214.668C1966.68 205.546 2040.87 251.156 2076.75 349.672C2120.53 468.864 2063.98 579.543 1923.5 648.869C1872.42 674.411 1861.47 677.451 1816.47 679.884C1772.68 681.708 1763.56 680.492 1739.24 667.721C1684.51 637.923 1651.06 567.381 1666.26 511.433C1675.99 474.337 1707.61 437.242 1745.32 418.39C1784.85 398.322 1782.41 397.106 1736.8 413.525C1699.71 427.512 1660.79 465.216 1644.98 502.311C1640.11 514.474 1635.86 541.839 1635.86 562.516C1635.86 681.708 1741.67 755.291 1874.24 727.926C2037.22 694.479 2164.32 560.691 2164.92 422.039C2164.92 382.511 2146.07 308.319 2125.4 267.575C2105.33 227.439 2060.94 183.046 2024.45 165.41C1993.43 150.207 1914.38 133.179 1880.32 134.396C1867.55 135.004 1835.93 138.652 1809.17 142.909Z" fill="black"/>
</svg>
