<svg width="528" height="1100" viewBox="0 0 528 1100" fill="none" xmlns="http://www.w3.org/2000/svg">
<path d="M124 20C124 21.1 123.6 22 123 22C122.5 22 122 23.3 122 25C122 26.6 121.6 28 121 28C120.5 28 120 29.3 120 31C120 32.6 119.6 34 119 34C118.5 34 118 34.9 118 36C118 37.1 117.6 38 117 38C116.5 38 116 39.3 116 41C116 42.6 115.6 44 115 44C114.5 44 114 44.9 114 46C114 47.1 113.6 48 113 48C112.4 48 112 52 112 58C112 64 112.4 68 113 68C113.6 68 114 71.3 114 76C114 80.7 114.4 84 115 84C115.6 84 116 89 116 97C116 105 116.4 110 117 110C117.6 110 118 123.7 118 149C118 174.3 117.6 188 117 188C116.4 188 116 193.3 116 202C116 210.7 115.6 216 115 216C114.4 216 114 220 114 226C114 232 113.6 236 113 236C112.4 236 112 240 112 246C112 252 112.4 256 113 256C113.6 256 114 254.2 114 252C114 249.8 114.5 248 115 248C115.6 248 116 245.7 116 243C116 240.2 116.5 238 117 238C117.6 238 118 235.7 118 233C118 230.2 118.5 228 119 228C119.6 228 120 225.3 120 222C120 218.7 120.4 216 121 216C121.6 216 122 213.7 122 211C122 208.2 122.5 206 123 206C123.6 206 124 203 124 199C124 195 124.4 192 125 192C125.6 192 126 188.3 126 183C126 177.7 126.4 174 127 174C127.6 174 128 169 128 161C128 153 128.4 148 129 148C129.7 148 130 130.7 130 98C130 65.3 129.7 48 129 48C128.4 48 128 43 128 35C128 27 127.6 22 127 22C126.5 22 126 21.1 126 20C126 18.9 125.6 18 125 18C124.5 18 124 18.9 124 20Z" fill="black"/>
<path d="M219.3 23.5C218.6 24.3 218 25.6 218 26.5C218 27.3 217.6 28 217 28C216.5 28 216 28.9 216 30C216 31.1 215.6 32 215 32C214.5 32 214 32.8 214 33.8C214 34.8 213.1 36.2 212 37C210.9 37.8 210 39.2 210 40.2C210 41.2 209.6 42 209 42C208.5 42 208 42.9 208 44C208 45.1 207.6 46 207 46C206.5 46 206 46.9 206 48C206 49.1 205.6 50 205 50C204.5 50 204 50.8 204 51.8C204 52.8 203.1 54.2 202 55C200.9 55.8 200 57.2 200 58.2C200 59.2 199.6 60 199 60C198.5 60 198 60.9 198 62C198 63.1 197.6 64 197 64C196.5 64 196 64.9 196 66C196 67.1 195.6 68 195 68C194.5 68 194 68.9 194 70C194 71.1 193.6 72 193 72C192.5 72 192 72.9 192 74C192 75.1 191.6 76 191 76C190.5 76 190 78.2 190 81C190 83.7 190.5 86 191 86C191.7 86 192 100.7 192 128C192 155.3 191.7 170 191 170C190.4 170 190 176 190 186C190 196 189.6 202 189 202C188.4 202 188 206.7 188 214C188 221.3 187.6 226 187 226C186.4 226 186 229.7 186 235C186 240.3 185.6 244 185 244C184.4 244 184 247.3 184 252C184 256.7 183.6 260 183 260C182.4 260 182 263 182 267C182 271 181.6 274 181 274C180.4 274 180 276.7 180 280C180 283.3 179.6 286 179 286C178.4 286 178 288.7 178 292C178 295.3 177.6 298 177 298C176.4 298 176 300.7 176 304C176 307.3 175.6 310 175 310C174.5 310 174 312.2 174 315C174 317.7 173.6 320 173 320C172.5 320 172 322.2 172 325C172 327.7 171.6 330 171 330C170.5 330 170 332.2 170 335C170 337.7 169.6 340 169 340C168.5 340 168 341.8 168 344C168 346.2 167.6 348 167 348C166.5 348 166 349.8 166 352C166 354.2 165.6 356 165 356C164.5 356 164 357.8 164 360C164 362.2 163.6 364 163 364C162.5 364 162 365.3 162 367C162 368.6 161.6 370 161 370C160.5 370 160 371.8 160 374C160 376.2 159.6 378 159 378C158.5 378 158 379.3 158 381C158 382.6 157.6 384 157 384C156.5 384 156 385.3 156 387C156 388.6 155.6 390 155 390C154.5 390 154 391.3 154 393C154 394.6 153.6 396 153 396C152.5 396 152 397.3 152 399C152 400.6 151.6 402 151 402C150.5 402 150 403.3 150 405C150 406.6 149.6 408 149 408C148.5 408 148 409.3 148 411C148 412.6 147.6 414 147 414C146.5 414 146 415.3 146 417C146 418.6 145.6 420 145 420C144.5 420 144 421.3 144 423C144 424.6 143.6 426 143 426C142.5 426 142 426.9 142 428C142 429.1 141.6 430 141 430C140.5 430 140 431.3 140 433C140 434.6 139.6 436 139 436C138.5 436 138 436.9 138 438C138 439.1 137.6 440 137 440C136.5 440 136 441.3 136 443C136 444.6 135.6 446 135 446C134.5 446 134 446.9 134 448C134 449.1 133.6 450 133 450C132.5 450 132 450.9 132 452C132 453.1 131.6 454 131 454C130.5 454 130 455.3 130 457C130 458.6 129.6 460 129 460C128.5 460 128 460.9 128 462C128 463.1 127.6 464 127 464C126.5 464 126 464.9 126 466C126 467.1 125.6 468 125 468C124.5 468 124 468.9 124 470C124 471.1 123.6 472 123 472C122.5 472 122 473.3 122 475C122 476.6 121.6 478 121 478C120.5 478 120 478.9 120 479.9C120 481 119.4 482 118.8 482.3C118.1 482.5 117.8 483.1 118.2 483.5C119.1 484.5 122 481.6 122 479.6C122 478.7 122.5 478 123 478C123.6 478 124 477.2 124 476.2C124 475.2 124.9 473.8 126 473C127.1 472.2 128 470.8 128 469.8C128 468.8 128.5 468 129 468C129.6 468 130 467.2 130 466.2C130 465.2 130.9 463.8 132 463C133.1 462.2 134 460.8 134 459.8C134 458.8 134.5 458 135 458C135.6 458 136 457.1 136 456C136 454.9 136.5 454 137 454C137.6 454 138 453.1 138 452C138 450.9 138.5 450 139 450C139.6 450 140 449.1 140 448C140 446.9 140.5 446 141 446C141.6 446 142 445.2 142 444.2C142 443.2 142.9 441.8 144 441C145.1 440.2 146 438.8 146 437.8C146 436.8 146.5 436 147 436C147.6 436 148 435.1 148 434C148 432.9 148.5 432 149 432C149.6 432 150 431.1 150 430C150 428.9 150.5 428 151 428C151.6 428 152 426.6 152 425C152 423.3 152.5 422 153 422C153.6 422 154 421.1 154 420C154 418.9 154.5 418 155 418C155.6 418 156 417.1 156 416C156 414.9 156.5 414 157 414C157.6 414 158 413.1 158 412C158 410.9 158.5 410 159 410C159.6 410 160 408.6 160 407C160 405.3 160.5 404 161 404C161.6 404 162 403.1 162 402C162 400.9 162.5 400 163 400C163.6 400 164 398.6 164 397C164 395.3 164.5 394 165 394C165.6 394 166 393.1 166 392C166 390.9 166.5 390 167 390C167.6 390 168 388.6 168 387C168 385.3 168.5 384 169 384C169.6 384 170 382.6 170 381C170 379.3 170.5 378 171 378C171.6 378 172 377.1 172 376C172 374.9 172.5 374 173 374C173.6 374 174 372.6 174 371C174 369.3 174.5 368 175 368C175.6 368 176 366.6 176 365C176 363.3 176.5 362 177 362C177.6 362 178 360.6 178 359C178 357.3 178.5 356 179 356C179.6 356 180 354.6 180 353C180 351.3 180.5 350 181 350C181.6 350 182 348.2 182 346C182 343.8 182.5 342 183 342C183.6 342 184 340.6 184 339C184 337.3 184.5 336 185 336C185.6 336 186 334.2 186 332C186 329.8 186.5 328 187 328C187.6 328 188 326.6 188 325C188 323.3 188.5 322 189 322C189.6 322 190 320.2 190 318C190 315.8 190.5 314 191 314C191.6 314 192 312.2 192 310C192 307.8 192.5 306 193 306C193.6 306 194 304.2 194 302C194 299.8 194.5 298 195 298C195.6 298 196 295.7 196 293C196 290.2 196.5 288 197 288C197.6 288 198 285.7 198 283C198 280.2 198.5 278 199 278C199.6 278 200 275.7 200 273C200 270.2 200.5 268 201 268C201.6 268 202 265.7 202 263C202 260.2 202.5 258 203 258C203.6 258 204 255.3 204 252C204 248.7 204.4 246 205 246C205.6 246 206 243.3 206 240C206 236.7 206.4 234 207 234C207.6 234 208 231.3 208 228C208 224.7 208.4 222 209 222C209.6 222 210 219.3 210 216C210 212.7 210.4 210 211 210C211.6 210 212 206.7 212 202C212 197.3 212.4 194 213 194C213.6 194 214 191 214 187C214 183 214.4 180 215 180C215.6 180 216 176.3 216 171C216 165.7 216.4 162 217 162C217.6 162 218 158 218 152C218 146 218.4 142 219 142C219.6 142 220 137.3 220 130C220 122.7 220.4 118 221 118C221.7 118 222 101.3 222 70C222 43.6 221.7 22 221.3 22C220.8 22.1 219.9 22.7 219.3 23.5Z" fill="black"/>
<path d="M80 574C80 918.7 80.3 1092 81 1092C81.6 1092 82 1083.3 82 1068C82 1052.7 82.4 1044 83 1044C83.6 1044 84 1052 84 1066C84 1087.3 84.1 1088 86 1088C87.9 1088 88 1087.3 88 1063C88 1047 88.4 1038 89 1038C89.6 1038 90 1046.3 90 1061C90 1075.7 90.4 1084 91 1084C91.6 1084 92 1077.7 92 1067.1C92 1054.5 92.3 1050 93.3 1049.6C94.3 1049.1 94.3 1048.9 93.3 1048.4C90.5 1047.1 92.4 1036 95.4 1036C95.7 1036 96 1045.9 96 1058C96 1072 96.4 1080 97 1080C97.6 1080 98 1071.7 98 1057C98 1042.3 98.4 1034 99 1034C99.6 1034 100 1042.7 100 1058C100 1081.3 100.1 1082 102 1082C103.9 1082 104 1081.3 104 1060C104 1046 104.4 1038 105 1038C105.6 1038 106 1045.7 106 1059C106 1072.3 106.4 1080 107 1080C107.6 1080 108 1071.7 108 1057C108 1034.7 108.1 1034 110 1034C111.9 1034 112 1034.7 112 1054C112 1066.7 112.4 1074 113 1074C113.6 1074 114 1066 114 1052C114 1030.7 114.1 1030 116 1030C117.9 1030 118 1030.7 118 1050C118 1062.7 118.4 1070 119 1070C119.6 1070 120 1062 120 1048C120 1026.7 120.1 1026 122 1026C123.9 1026 124 1026.7 124 1047C124 1060.3 124.4 1068 125 1068C125.6 1068 126 1059.7 126 1045C126 1022.7 126.1 1022 128 1022C129.9 1022 130 1022.7 130 1043C130 1056.3 130.4 1064 131 1064C131.6 1064 132 1055.7 132 1041C132 1018.7 132.1 1018 134 1018C135.9 1018 136 1018.7 136 1039C136 1052.3 136.4 1060 137 1060C137.6 1060 138 1052.1 138 1038.4C138 1021.1 138.3 1016.6 139.4 1015.4C140.2 1014.6 141.1 1014 141.4 1014C141.7 1014 142 1023.4 142 1035C142 1048.3 142.4 1056 143 1056C143.6 1056 144 1054.7 144 1053.1C144 1051.5 144.6 1049.9 145.2 1049.6C146.3 1049.1 146.3 1048.9 145.3 1048.4C143.7 1047.7 143.4 1014 145 1014C145.6 1014 146 1013.1 146 1012C146 1010.9 146.5 1010 147 1010C147.6 1010 148 1017.7 148 1031C148 1042.5 148.3 1052 148.6 1052C148.9 1052 149.8 1051.4 150.6 1050.6C151.7 1049.4 152 1045.1 152 1028.6C152 1015.5 152.4 1008 153 1008C153.6 1008 154 1015.3 154 1028C154 1047.3 154.1 1048 156 1048C157.3 1048 158 1047.3 158 1046C158 1044.7 158.7 1044 160 1044C162 1044 162 1043.3 162 1012C162 991.3 161.6 980 161 980C159.3 980 159.7 961.1 161.4 959.4C162.2 958.6 163.1 958 163.4 958C163.7 958 164 967.9 164 980C164 994 164.4 1002 165 1002C165.6 1002 166 993.5 166 978.4C166 959.3 166.3 954.6 167.4 953.4C168.2 952.6 169.1 952 169.4 952C169.7 952 170 961.9 170 974C170 988 170.4 996 171 996C171.6 996 172 987.5 172 972.4C172 953.3 172.3 948.6 173.4 947.4C174.2 946.6 175.1 946 175.4 946C175.7 946 176 956.3 176 969C176 983.7 176.4 992 177 992C177.6 992 178 983 178 967C178 951 178.4 942 179 942C179.6 942 180 950 180 964C180 985.3 180.1 986 182 986C183.9 986 184 985.3 184 962C184 946.7 184.4 938 185 938C185.6 938 186 946 186 960C186 972.1 186.3 982 186.6 982C186.9 982 187.9 981.2 188.8 980.3C190 979.1 190.1 978.5 189.2 978.2C187.8 977.8 187.6 974 189 974C189.6 974 190 966.7 190 954C190 941.3 190.4 934 191 934C191.6 934 192 942 192 956C192 970 192.4 978 193 978C193.6 978 194 969.3 194 954C194 938.7 194.4 930 195 930C195.6 930 196 937.5 196 950.6C196 967.1 196.3 971.4 197.4 972.6C198.2 973.4 199.1 974 199.4 974C199.7 974 200 963.6 200 951C200 936.3 200.4 928 201 928C201.6 928 202 935.7 202 949C202 969.3 202.1 970 204 970C205.9 970 206 969.3 206 947C206 932.3 206.4 924 207 924C207.6 924 208 931.7 208 945C208 965.3 208.1 966 210 966C211.9 966 212 965.3 212 944C212 930 212.4 922 213 922C213.6 922 214 929.3 214 942C214 954.7 214.4 962 215 962C215.6 962 216 961.1 216 960C216 958.9 216.5 958 217 958C218.6 958 218.3 926.3 216.8 925.7C215.8 925.3 215.9 924.9 217 924.1C218.3 923.1 218.3 922.9 217 922C215.7 921.1 215.7 920.9 217 919.9C218.1 919.1 218.2 918.7 217.3 918.3C216.4 918 216 915.5 216 910.9C216 904.7 216.2 904 218 904C219.9 904 220 903.3 220 879C220 863 220.4 854 221 854C221.6 854 222 862 222 876C222 890 222.4 898 223 898C223.6 898 224 889.3 224 874C224 850.7 224.1 850 226 850C228.3 850 228.8 853.4 226.7 854.4C225.8 854.9 225.8 855.1 226.8 855.6C227.7 856 228 859.9 228 870C228 880.1 227.7 884 226.8 884.4C225.8 884.9 225.8 885.1 226.8 885.6C228.2 886.3 228.4 890 227 890C226.5 890 226 890.4 226 891C226 891.5 226.9 892 228 892C229.9 892 230 891.3 230 868C230 852.7 230.4 844 231 844C231.6 844 232 852.3 232 867C232 881.7 232.4 890 233 890C233.6 890 234 881 234 865C234 849 234.4 840 235 840C235.6 840 236 848.3 236 863C236 875.6 236.3 886 236.6 886C236.9 886 237.8 885.4 238.6 884.6C239.7 883.4 240 878.7 240 859.6C240 844.5 240.4 836 241 836C241.6 836 242 844 242 858C242 872 242.4 880 243 880C243.6 880 244 871.3 244 856C244 840.7 244.4 832 245 832C245.6 832 246 839.3 246 852C246 871.3 246.1 872 248 872C249.3 872 250 871.3 250 870C250 868.9 250.5 868 251 868C251.6 868 252 868.4 252 869C252 869.5 252.5 870 253 870C253.6 870 254 859.7 254 841C254 822.3 253.6 812 253 812C252.5 812 252 809.7 252 807C252 804.2 251.6 802 251 802C250.5 802 250 799.7 250 797C250 794.2 249.6 792 249 792C248.5 792 248 789.7 248 787C248 784.2 247.6 782 247 782C246.5 782 246 780.2 246 778C246 775.8 245.6 774 245 774C244.5 774 244 772.2 244 770C244 767.8 243.6 766 243 766C242.5 766 242 764.2 242 762C242 759.8 241.6 758 241 758C240.5 758 240 756.2 240 754C240 751.8 239.6 750 239 750C238.5 750 238 748.2 238 746C238 743.8 237.6 742 237 742C236.5 742 236 740.6 236 739C236 737.3 235.6 736 235 736C234.5 736 234 734.2 234 732C234 729.8 233.6 728 233 728C232.5 728 232 726.6 232 725C232 723.3 231.6 722 231 722C230.5 722 230 720.6 230 719C230 717.3 229.6 716 229 716C228.5 716 228 714.6 228 713C228 711.3 227.6 710 227 710C226.5 710 226 708.6 226 707C226 705.3 225.6 704 225 704C224.4 704 224 700.3 224 695C224 689.7 223.6 686 223 686C222.4 686 222 683.3 222 680C222 676.7 221.6 674 221 674C220.4 674 220 671.3 220 668C220 664.7 219.6 662 219 662C218.5 662 218 660.2 218 658C218 655.8 217.6 654 217 654C216.5 654 216 653.2 216 652.2C216 651.2 215.1 649.8 214 649C212.6 648 212 646.4 212 643.8C212 641.7 212.5 640 213 640C213.6 640 214 639.1 214 638C214 636.9 213.6 636 213 636C212.5 636 212 635.2 212 634.2C212 633.2 211.1 631.8 210 631C208.1 629.6 208 628.4 208 607.8C208 593.9 207.6 586 207 586C206.4 586 206 581.7 206 575C206 568.3 205.6 564 205 564C204.5 564 204 562.2 204 560C204 557.1 204.4 556 205.5 556C207.5 556 214 549.5 214 547.5C214 546.7 214.5 546 215 546C215.6 546 216 543.7 216 541C216 538.2 215.6 536 215 536C214.5 536 214 535.3 214 534.4C214 533.5 212.5 531.4 210.8 529.7C208.7 527.8 208 526.5 208.8 526.3C209.4 526 210 525.2 210 524.4C210 523.6 214.1 518.9 219 514C224 509.1 228 504.6 228 504C228 503.4 230.7 500.2 234 497C237.3 493.8 240 490.6 240 490C240 489.4 242.2 486.7 245 484C247.7 481.3 250 478.6 250 478C250 477.3 251.4 475.5 253 474C254.7 472.5 256 470.7 256 470C256 469.3 257.4 467.5 259 466C260.7 464.5 262 462.7 262 462C262 461.3 263.3 459.5 265 458C266.7 456.5 268 454.7 268 454C268 453.3 269.4 451.5 271 450C272.7 448.5 274 446.6 274 445.8C274 445.1 274.9 443.8 276 443C277.1 442.2 278 440.9 278 440C278 439.1 278.9 437.8 280 437C281.1 436.2 282 434.9 282 434.2C282 433.4 283.4 431.5 285 430C286.7 428.5 288 426.6 288 425.8C288 425.1 288.9 423.8 290 423C291.1 422.2 292 420.9 292 420C292 419.1 292.9 417.8 294 417C295.1 416.2 296 414.9 296 414C296 413.1 296.9 411.8 298 411C299.1 410.2 300 408.9 300 408C300 407.1 300.9 405.8 302 405C303.1 404.2 304 402.8 304 401.8C304 400.8 304.5 400 305 400C305.6 400 306 399.2 306 398.2C306 397.2 306.9 395.8 308 395C309.1 394.2 310 392.9 310 392C310 391.1 310.9 389.8 312 389C313.1 388.2 314 386.8 314 385.8C314 384.8 314.5 384 315 384C315.6 384 316 383.2 316 382.2C316 381.2 316.9 379.8 318 379C319.1 378.2 320 376.8 320 375.8C320 374.8 320.5 374 321 374C321.6 374 322 373.2 322 372.2C322 371.2 322.9 369.8 324 369C325.1 368.2 326 366.8 326 365.8C326 364.8 326.5 364 327 364C327.6 364 328 363.2 328 362.2C328 361.2 328.9 359.8 330 359C331.1 358.2 332 356.8 332 355.8C332 354.8 332.5 354 333 354C333.6 354 334 353.1 334 352C334 350.9 334.5 350 335 350C335.6 350 336 349.2 336 348.2C336 347.2 336.9 345.8 338 345C339.1 344.2 340 342.8 340 341.8C340 340.8 340.5 340 341 340C341.6 340 342 339.1 342 338C342 336.9 342.5 336 343 336C343.6 336 344 335.1 344 334C344 332.9 344.5 332 345 332C345.6 332 346 331.2 346 330.2C346 329.2 346.9 327.8 348 327C349.1 326.2 350 324.8 350 323.8C350 322.8 350.5 322 351 322C351.6 322 352 321.1 352 320C352 318.9 352.5 318 353 318C353.6 318 354 317.1 354 316C354 314.9 354.5 314 355 314C355.6 314 356 313.1 356 312C356 310.9 356.5 310 357 310C357.6 310 358 309.1 358 308C358 306.9 358.5 306 359 306C359.6 306 360 305.1 360 304C360 302.9 360.5 302 361 302C361.6 302 362 301.1 362 300C362 298.9 362.5 298 363 298C363.6 298 364 297.1 364 296C364 294.9 364.5 294 365 294C365.6 294 366 293.1 366 292C366 290.9 366.5 290 367 290C367.6 290 368 289.1 368 288C368 286.9 368.5 286 369 286C369.6 286 370 284.6 370 283C370 281.3 370.5 280 371 280C371.6 280 372 279.1 372 278C372 276.9 372.5 276 373 276C373.6 276 374 275.1 374 274C374 272.9 374.5 272 375 272C375.6 272 376 271.1 376 270C376 268.9 376.5 268 377 268C377.6 268 378 267.1 378 266C378 264.9 378.5 264 379 264C379.6 264 380 262.6 380 261C380 259.3 380.5 258 381 258C381.6 258 382 257.1 382 256C382 254.9 382.5 254 383 254C383.6 254 384 253.1 384 252C384 250.9 384.5 250 385 250C385.6 250 386 249.1 386 248C386 246.9 386.5 246 387 246C387.6 246 388 244.6 388 243C388 241.3 388.5 240 389 240C389.6 240 390 239.1 390 238C390 236.9 390.5 236 391 236C391.6 236 392 234.6 392 233C392 231.3 392.5 230 393 230C393.6 230 394 229.1 394 228C394 226.9 394.5 226 395 226C395.6 226 396 225.1 396 224C396 222.9 396.5 222 397 222C397.6 222 398 220.6 398 219C398 217.3 398.5 216 399 216C399.6 216 400 214.6 400 213C400 211.3 400.5 210 401 210C401.6 210 402 209.1 402 208C402 206.9 402.5 206 403 206C403.6 206 404 204.6 404 203C404 201.3 404.5 200 405 200C405.6 200 406 199.1 406 198C406 196.9 406.5 196 407 196C407.6 196 408 194.6 408 193C408 191.3 408.5 190 409 190C409.6 190 410 188.6 410 187C410 185.3 410.5 184 411 184C411.6 184 412 182.6 412 181C412 179.3 412.5 178 413 178C413.6 178 414 176.6 414 175C414 173.3 414.5 172 415 172C415.6 172 416 170.6 416 169C416 167.3 416.5 166 417 166C417.6 166 418 164.6 418 163C418 161.3 418.5 160 419 160C419.6 160 420 159.1 420 158C420 156.9 420.5 156 421 156C421.6 156 422 154.6 422 153C422 151.3 422.5 150 423 150C423.6 150 424 148.6 424 147C424 145.3 424.5 144 425 144C425.6 144 426 142.2 426 140C426 137.8 426.5 136 427 136C427.6 136 428 134.6 428 133C428 131.3 428.5 130 429 130C429.6 130 430 128.6 430 127C430 125.3 430.5 124 431 124C431.6 124 432 122.6 432 121C432 119.3 432.5 118 433 118C433.6 118 434 117.1 434 116C434 114.9 433.6 114 433 114C432.5 114 432 114.9 432 116C432 117.1 431.6 118 431 118C430.5 118 430 118.9 430 120C430 121.1 429.6 122 429 122C428.5 122 428 122.9 428 124C428 125.1 427.6 126 427 126C426.5 126 426 126.9 426 128C426 129.1 425.6 130 425 130C424.5 130 424 131.3 424 133C424 134.6 423.6 136 423 136C422.5 136 422 136.9 422 138C422 139.1 421.6 140 421 140C420.5 140 420 140.9 420 142C420 143.1 419.6 144 419 144C418.5 144 418 144.9 418 146C418 147.1 417.6 148 417 148C416.5 148 416 148.9 416 150C416 151.1 415.6 152 415 152C414.5 152 414 153.3 414 155C414 156.6 413.6 158 413 158C412.5 158 412 158.9 412 160C412 161.1 411.6 162 411 162C410.5 162 410 162.9 410 164C410 165.1 409.6 166 409 166C408.5 166 408 166.9 408 168C408 169.1 407.6 170 407 170C406.5 170 406 170.9 406 172C406 173.1 405.6 174 405 174C404.5 174 404 174.9 404 176C404 177.1 403.6 178 403 178C402.5 178 402 178.9 402 180C402 181.1 401.6 182 401 182C400.5 182 400 183.3 400 185C400 186.6 399.6 188 399 188C398.5 188 398 188.9 398 190C398 191.1 397.6 192 397 192C396.5 192 396 192.9 396 194C396 195.1 395.6 196 395 196C394.5 196 394 196.9 394 198C394 199.1 393.6 200 393 200C392.5 200 392 200.9 392 202C392 203.1 391.6 204 391 204C390.5 204 390 204.9 390 206C390 207.1 389.6 208 389 208C388.5 208 388 208.9 388 210C388 211.1 387.6 212 387 212C386.5 212 386 212.9 386 214C386 215.1 385.6 216 385 216C384.5 216 384 216.9 384 218C384 219.1 383.6 220 383 220C382.5 220 382 220.9 382 222C382 223.1 381.6 224 381 224C380.5 224 380 224.9 380 226C380 227.1 379.6 228 379 228C378.5 228 378 228.9 378 230C378 231.1 377.6 232 377 232C376.5 232 376 233.3 376 235C376 236.6 375.6 238 375 238C374.5 238 374 238.8 374 239.8C374 240.8 373.1 242.2 372 243C370.9 243.8 370 245.2 370 246.2C370 247.2 369.6 248 369 248C368.5 248 368 248.9 368 250C368 251.1 367.6 252 367 252C366.5 252 366 252.9 366 254C366 255.1 365.6 256 365 256C364.5 256 364 256.9 364 258C364 259.1 363.6 260 363 260C362.5 260 362 260.9 362 262C362 263.1 361.6 264 361 264C360.5 264 360 264.9 360 266C360 267.1 359.6 268 359 268C358.5 268 358 268.9 358 270C358 271.1 357.6 272 357 272C356.5 272 356 272.9 356 274C356 275.1 355.6 276 355 276C354.5 276 354 276.8 354 277.8C354 278.8 353.1 280.2 352 281C350.9 281.8 350 283.2 350 284.2C350 285.2 349.6 286 349 286C348.5 286 348 286.9 348 288C348 289.1 347.6 290 347 290C346.5 290 346 290.9 346 292C346 293.1 345.6 294 345 294C344.5 294 344 294.8 344 295.8C344 296.8 343.1 298.2 342 299C340.9 299.8 340 301.2 340 302.2C340 303.2 339.6 304 339 304C338.5 304 338 304.8 338 305.8C338 306.8 337.1 308.2 336 309C334.9 309.8 334 311.2 334 312.2C334 313.2 333.6 314 333 314C332.5 314 332 314.8 332 315.8C332 316.8 331.1 318.2 330 319C328.9 319.8 328 321.2 328 322.2C328 323.2 327.6 324 327 324C326.5 324 326 324.8 326 325.8C326 326.8 325.1 328.2 324 329C322.9 329.8 322 331.2 322 332.2C322 333.2 321.6 334 321 334C320.5 334 320 334.8 320 335.8C320 336.8 319.1 338.2 318 339C316.9 339.8 316 341.1 316 342C316 342.9 315.1 344.2 314 345C312.9 345.8 312 347.1 312 348C312 348.9 311.1 350.2 310 351C308.9 351.8 308 353.1 308 354C308 354.9 307.1 356.2 306 357C304.9 357.8 304 359.2 304 360.2C304 361.2 303.6 362 303 362C302.5 362 302 362.7 302 363.6C302 364.5 300.6 366.5 299 368C297.3 369.5 296 371.4 296 372.2C296 372.9 295.1 374.2 294 375C292.9 375.8 292 377.1 292 378C292 378.9 291.1 380.2 290 381C288.9 381.8 288 383.1 288 384C288 384.9 287.1 386.2 286 387C284.9 387.8 284 389.1 284 390C284 390.9 283.1 392.2 282 393C280.9 393.8 280 395.1 280 396C280 396.9 279.1 398.2 278 399C276.9 399.8 276 401.1 276 401.8C276 402.6 274.7 404.5 273 406C271.4 407.5 270 409.3 270 410C270 410.7 268.7 412.5 267 414C265.4 415.5 264 417.3 264 418C264 418.7 262.7 420.5 261 422C259.4 423.5 258 425.3 258 426C258 426.7 256.7 428.5 255 430C253.4 431.5 252 433.3 252 434C252 434.7 250.7 436.5 249 438C247.3 439.5 246 441.3 246 442C246 442.6 243.8 445.3 241 448C238.3 450.7 236 453.4 236 454C236 454.6 232.9 458.2 229 462C225.2 465.8 222 469.4 222 470C222 471.3 195.3 498 194 498C193.4 498 189.7 501.2 185.9 505.1C182 509 178.6 511.9 178.3 511.6C178 511.3 178.7 510.2 179.8 509.1C181 508.1 182 506.7 182 506C182 505.4 183.4 503.5 185 502C186.7 500.5 188 498.6 188 497.8C188 497.1 188.9 495.8 190 495C191.1 494.2 192 492.9 192 492.2C192 491.4 193.4 489.5 195 488C196.7 486.5 198 484.6 198 483.8C198 483.1 198.9 481.8 200 481C201.1 480.2 202 478.9 202 478.2C202 477.4 203.4 475.5 205 474C206.6 472.5 208 470.6 208 469.8C208 469.1 208.9 467.8 210 467C211.1 466.2 212 464.9 212 464C212 463.1 212.9 461.8 214 461C215.1 460.2 216 458.9 216 458C216 457.1 216.9 455.8 218 455C219.1 454.2 220 452.9 220 452C220 451.1 220.9 449.8 222 449C223.1 448.2 224 446.8 224 445.8C224 444.8 224.5 444 225 444C225.6 444 226 443.2 226 442.2C226 441.2 226.9 439.8 228 439C229.1 438.2 230 436.9 230 436C230 435.1 230.9 433.8 232 433C233.1 432.2 234 430.8 234 429.8C234 428.8 234.5 428 235 428C235.6 428 236 427.2 236 426.2C236 425.2 236.9 423.8 238 423C239.1 422.2 240 420.8 240 419.8C240 418.8 240.5 418 241 418C241.6 418 242 417.1 242 416C242 414.9 242.5 414 243 414C243.6 414 244 413.2 244 412.2C244 411.2 244.9 409.8 246 409C247.1 408.2 248 406.8 248 405.8C248 404.8 248.5 404 249 404C249.6 404 250 403.2 250 402.2C250 401.2 250.9 399.8 252 399C253.1 398.2 254 396.8 254 395.8C254 394.8 254.5 394 255 394C255.6 394 256 393.1 256 392C256 390.9 256.5 390 257 390C257.6 390 258 389.1 258 388C258 386.9 258.5 386 259 386C259.6 386 260 385.1 260 384C260 382.9 260.5 382 261 382C261.6 382 262 381.1 262 380C262 378.9 262.5 378 263 378C263.6 378 264 377.2 264 376.2C264 375.2 264.9 373.8 266 373C267.1 372.2 268 370.8 268 369.8C268 368.8 268.5 368 269 368C269.6 368 270 367.1 270 366C270 364.9 270.5 364 271 364C271.6 364 272 363.1 272 362C272 360.9 272.5 360 273 360C273.6 360 274 359.1 274 358C274 356.9 274.5 356 275 356C275.6 356 276 355.1 276 354C276 352.9 276.5 352 277 352C277.6 352 278 351.1 278 350C278 348.9 278.5 348 279 348C279.6 348 280 347.1 280 346C280 344.9 280.5 344 281 344C281.6 344 282 343.1 282 342C282 340.9 282.5 340 283 340C283.6 340 284 339.1 284 338C284 336.9 284.5 336 285 336C285.6 336 286 335.1 286 334C286 332.9 286.5 332 287 332C287.6 332 288 331.1 288 330C288 328.9 288.5 328 289 328C289.6 328 290 327.1 290 326C290 324.9 290.5 324 291 324C291.6 324 292 323.1 292 322C292 320.9 292.5 320 293 320C293.6 320 294 319.1 294 318C294 316.9 294.5 316 295 316C295.6 316 296 315.1 296 314C296 312.9 296.5 312 297 312C297.6 312 298 311.1 298 310C298 308.9 298.5 308 299 308C299.6 308 300 307.1 300 306C300 304.9 300.5 304 301 304C301.6 304 302 303.1 302 302C302 300.9 302.5 300 303 300C303.6 300 304 299.1 304 298C304 296.9 304.5 296 305 296C305.6 296 306 295.1 306 294C306 292.9 306.5 292 307 292C307.6 292 308 290.6 308 289C308 287.3 308.5 286 309 286C309.6 286 310 285.1 310 284C310 282.9 310.5 282 311 282C311.6 282 312 281.1 312 280C312 278.9 312.5 278 313 278C313.6 278 314 277.1 314 276C314 274.9 314.5 274 315 274C315.6 274 316 272.6 316 271C316 269.3 316.5 268 317 268C317.6 268 318 267.1 318 266C318 264.9 318.5 264 319 264C319.6 264 320 262.6 320 261C320 259.3 320.5 258 321 258C321.6 258 322 257.1 322 256C322 254.9 322.5 254 323 254C323.6 254 324 252.6 324 251C324 249.3 324.5 248 325 248C325.6 248 326 247.1 326 246C326 244.9 326.5 244 327 244C327.6 244 328 242.6 328 241C328 239.3 328.5 238 329 238C329.6 238 330 236.6 330 235C330 233.3 330.5 232 331 232C331.6 232 332 230.6 332 229C332 227.3 332.5 226 333 226C333.6 226 334 224.6 334 223C334 221.3 334.5 220 335 220C335.6 220 336 218.6 336 217C336 215.3 336.5 214 337 214C337.6 214 338 212.2 338 210C338 207.8 338.5 206 339 206C339.6 206 340 204.2 340 202C340 199.8 340.5 198 341 198C341.6 198 342 197.1 342 196C342 194.9 341.6 194 341 194C340.5 194 340 194.9 340 196C340 197.1 339.6 198 339 198C338.5 198 338 198.9 338 200C338 201.1 337.6 202 337 202C336.5 202 336 202.9 336 204C336 205.1 335.6 206 335 206C334.5 206 334 206.9 334 208C334 209.1 333.6 210 333 210C332.5 210 332 211.3 332 213C332 214.6 331.6 216 331 216C330.5 216 330 216.9 330 218C330 219.1 329.6 220 329 220C328.5 220 328 220.9 328 222C328 223.1 327.6 224 327 224C326.5 224 326 224.9 326 226C326 227.1 325.6 228 325 228C324.5 228 324 228.9 324 230C324 231.1 323.6 232 323 232C322.5 232 322 232.9 322 234C322 235.1 321.6 236 321 236C320.5 236 320 236.9 320 238C320 239.1 319.6 240 319 240C318.5 240 318 240.9 318 242C318 243.1 317.6 244 317 244C316.5 244 316 245.3 316 247C316 248.6 315.6 250 315 250C314.5 250 314 250.9 314 252C314 253.1 313.6 254 313 254C312.5 254 312 254.9 312 256C312 257.1 311.6 258 311 258C310.5 258 310 258.9 310 260C310 261.1 309.6 262 309 262C308.5 262 308 262.9 308 264C308 265.1 307.6 266 307 266C306.5 266 306 266.9 306 268C306 269.1 305.6 270 305 270C304.5 270 304 270.9 304 272C304 273.1 303.6 274 303 274C302.5 274 302 274.8 302 275.8C302 276.8 301.1 278.2 300 279C298.9 279.8 298 281.2 298 282.2C298 283.2 297.6 284 297 284C296.5 284 296 284.9 296 286C296 287.1 295.6 288 295 288C294.5 288 294 288.9 294 290C294 291.1 293.6 292 293 292C292.5 292 292 292.9 292 294C292 295.1 291.6 296 291 296C290.5 296 290 296.9 290 298C290 299.1 289.6 300 289 300C288.5 300 288 300.9 288 302C288 303.1 287.6 304 287 304C286.5 304 286 304.9 286 306C286 307.1 285.6 308 285 308C284.5 308 284 308.8 284 309.8C284 310.8 283.1 312.2 282 313C280.9 313.8 280 315.2 280 316.2C280 317.2 279.6 318 279 318C278.5 318 278 318.9 278 320C278 321.1 277.6 322 277 322C276.5 322 276 322.9 276 324C276 325.1 275.6 326 275 326C274.5 326 274 326.9 274 328C274 329.1 273.6 330 273 330C272.5 330 272 330.8 272 331.8C272 332.8 271.1 334.2 270 335C268.9 335.8 268 337.2 268 338.2C268 339.2 267.6 340 267 340C266.5 340 266 340.9 266 342C266 343.1 265.6 344 265 344C264.5 344 264 344.8 264 345.8C264 346.8 263.1 348.2 262 349C260.9 349.8 260 351.2 260 352.2C260 353.2 259.6 354 259 354C258.5 354 258 354.9 258 356C258 357.1 257.6 358 257 358C256.5 358 256 358.9 256 360C256 361.1 255.6 362 255 362C254.5 362 254 362.8 254 363.8C254 364.8 253.1 366.2 252 367C250.9 367.8 250 369.2 250 370.2C250 371.2 249.6 372 249 372C248.5 372 248 372.9 248 374C248 375.1 247.6 376 247 376C246.5 376 246 376.8 246 377.8C246 378.8 245.1 380.2 244 381C242.9 381.8 242 383.2 242 384.2C242 385.2 241.6 386 241 386C240.5 386 240 386.8 240 387.8C240 388.8 239.1 390.2 238 391C236.9 391.8 236 393.2 236 394.2C236 395.2 235.6 396 235 396C234.5 396 234 396.8 234 397.8C234 398.8 233.1 400.2 232 401C230.9 401.8 230 403.2 230 404.2C230 405.2 229.6 406 229 406C228.5 406 228 406.8 228 407.8C228 408.8 227.1 410.2 226 411C224.9 411.8 224 413.1 224 414C224 414.9 223.1 416.2 222 417C220.9 417.8 220 419.2 220 420.2C220 421.2 219.6 422 219 422C218.5 422 218 422.8 218 423.8C218 424.8 217.1 426.2 216 427C214.9 427.8 214 429.1 214 430C214 430.9 213.1 432.2 212 433C210.9 433.8 210 435.1 210 436C210 436.9 209.1 438.2 208 439C206.9 439.8 206 441.1 206 442C206 442.9 205.1 444.2 204 445C202.9 445.8 202 447.1 202 448C202 448.9 201.1 450.2 200 451C198.9 451.8 198 453.1 198 453.8C198 454.6 196.6 456.5 195 458C193.4 459.5 192 461.4 192 462.2C192 462.9 191.1 464.2 190 465C188.9 465.8 188 467.1 188 467.8C188 468.6 186.7 470.5 185 472C183.4 473.5 182 475.3 182 476C182 476.7 180.7 478.5 179 480C177.4 481.5 176 483.3 176 484C176 484.6 174.2 486.9 172 489C169.8 491.1 168 493.4 168 494C168 494.6 165.3 497.8 162 501C158.7 504.2 156 507.4 156 508C156 509.6 139.2 526 137.5 526C136.7 526 136 525.5 136 525C136 524.4 135.1 524 134 524C132.9 524 132 523.5 132 523C132 522.4 130.7 522 129 522C127.4 522 126 521.5 126 521C126 520.4 125.1 520 124 520C122.9 520 122 519.5 122 519C122 518.4 121.1 518 120 518C118.9 518 118 517.5 118 517C118 516.4 117.1 516 116 516C114.9 516 114 515.5 114 515C114 514.4 113.1 514 112 514C110.9 514 110 513.5 110 513C110 512.4 109.1 512 108 512C106.9 512 106 511.5 106 511C106 510.4 105.2 510 104.2 510C103.2 510 101.8 509.1 101 508C100.2 506.9 98.9 506 98 506C97.1 506 95.8 505.1 95 504C94.2 502.9 93 502 92.2 502C88.8 502 88 499.3 88 487.6C88 480.5 88.4 476 89 476C89.6 476 90 466.7 90 450C90 433.3 90.4 424 91 424C91.7 424 92 404.7 92 368C92 331.3 91.7 312 91 312C90.4 312 90 300 90 278C90 256 89.6 244 89 244C88.4 244 88 233.3 88 214C88 194.7 87.6 184 87 184C86.4 184 86 175 86 159C86 143 85.6 134 85 134C84.4 134 84 126.3 84 113C84 99.7 83.6 92 83 92C82.4 92 82 85.3 82 74C82 62.7 81.6 56 81 56C80.3 56 80 229.3 80 574ZM110 517C110 517.5 110.7 518 111.5 518C113.5 518 126 530.5 126 532.5C126 533.3 126.5 534 127 534C127.6 534 128 534.9 128 536C128 537.3 127.3 538 126.2 538C125.2 538 123.8 537.1 123 536C122.2 534.9 121 534 120.2 534C118.4 534 112 527.4 112 525.5C112 524.7 111.6 524 111 524C110.5 524 110 523.1 110 522C110 520.9 109.6 520 109 520C108.5 520 108 519.1 108 518C108 516.9 108.5 516 109 516C109.6 516 110 516.4 110 517ZM94 521.8C94 522.8 94.9 524.2 96 525C97.1 525.8 98 527.2 98 528.2C98 529.2 98.5 530 99 530C99.6 530 100 530.4 100 531C100 532.5 97.1 532.2 95.4 530.6C94.6 529.8 94 528.4 94 527.6C94 526.7 93.6 526 93 526C92.5 526 92 524.6 92 523C92 521.3 92.5 520 93 520C93.6 520 94 520.8 94 521.8ZM130 527C130 527.5 130.9 528 132 528C133.1 528 134 528.4 134 529C134 529.5 135.2 530 136.6 530C139.5 530 142 532.1 142 534.4C142 535.3 142.5 536 143 536C143.6 536 144 536.7 144 537.6C144 538.4 145.8 540.9 148 543C150.2 545.1 152 547.1 152 547.4C152 547.7 150.7 548 149 548C147.4 548 146 547.5 146 547C146 546.4 145.1 546 144 546C142.9 546 142 545.5 142 545C142 544.4 141.3 544 140.5 544C138.6 544 132 537.6 132 535.8C132 535 131.1 533.8 130 533C128.9 532.2 128 530.8 128 529.8C128 528.8 127.6 528 127 528C126.5 528 126 527.5 126 527C126 526.4 126.9 526 128 526C129.1 526 130 526.4 130 527ZM91.5 536.5L96 540.9V616.5C96 666.2 96.3 692 97 692C97.7 692 98 734.7 98 818C98 901.3 98.3 944 99 944C99.6 944 100 955.7 100 977V1010H96C93.8 1010 92 1010.4 92 1011C92 1011.5 91.2 1012 90.2 1012C89.2 1012 87.8 1012.9 87 1014C85.1 1016.6 82 1016.6 82 1014.1C82 1013 82.6 1011.9 83.3 1011.7C84.2 1011.3 84.1 1010.9 83 1010C81.9 1009.1 81.8 1008.7 82.8 1008.3C83.7 1007.9 84 966.7 84 806.9C84 673.6 84.3 606 85 606C85.6 606 86 593 86 569C86 548.6 86.2 532 86.5 532C86.8 532 89.1 534 91.5 536.5ZM106.5 537.5C108.7 539.6 110 541.9 110 543.5C110 544.9 109.8 546 109.5 546C107.7 546 102 538.7 102 536.5C102 535.1 102.2 534 102.5 534C102.8 534 104.6 535.6 106.5 537.5ZM150 535C150 535.5 150.7 536 151.5 536C153.3 536 158 540.4 158 542C158 543.5 160.5 546 162 546C163.2 546 166 548.4 166 549.4C166 549.7 165.1 550 164 550C162.9 550 162 549.5 162 549C162 548.4 161.1 548 160 548C158.9 548 158 547.5 158 547C158 546.4 157.3 546 156.5 546C154.5 546 148 539.5 148 537.5C148 536.7 147.6 536 147 536C146.5 536 146 535.5 146 535C146 534.4 146.9 534 148 534C149.1 534 150 534.4 150 535ZM210 541C210 545.9 209.9 546 207.1 546C205.5 546 204 545.4 203.7 544.7C203.5 544.1 202.9 543.8 202.5 544.2C202 544.7 202.7 545.8 203.8 546.9C206.5 549.2 206.6 550 204 550C202.9 550 202 549.5 202 549C202 548.4 201.1 548 200 548C198.9 548 198 547.5 198 547C198 546.4 197.3 546 196.4 546C194.4 546 192 543.6 192 541.6C192 540.4 193 540 196 540C198.2 540 200 539.5 200 539C200 538.4 201.4 538 203 538C204.7 538 206 537.5 206 537C206 536.4 206.9 536 208 536C209.7 536 210 536.7 210 541ZM168.6 539.4C169.4 540.2 170 541.4 170 542C170 542.7 171.4 544.5 173 546C176.5 549.3 176.7 550 174 550C172.9 550 172 549.5 172 549C172 548.4 171.1 548 170 548C168.9 548 168 547.5 168 547C168 546.4 167.3 546 166.5 546C165.1 546 158 539.8 158 538.5C158 537.3 167.2 538.1 168.6 539.4ZM188 541.6C188 542.4 189.8 544.9 192 547C194.2 549.1 196 551.1 196 551.4C196 551.7 194.2 552 192 552C189.8 552 188 551.5 188 551C188 550.4 187.1 550 186 550C184.9 550 184 549.5 184 549C184 548.4 183.3 548 182.5 548C181.1 548 174 541.8 174 540.5C174 540.2 177.2 540 181 540C186.7 540 188 540.3 188 541.6ZM117 546C117.8 547.1 119 548 119.8 548C122 548 124 550.6 124 553.4C124 554.8 124.5 556 125 556C125.6 556 126 556.4 126 557C126 557.5 125.3 558 124.5 558C122.5 558 114 549.5 114 547.5C114 546.7 113.6 546 113 546C112.5 546 112 545.5 112 545C112 543.2 115.5 543.9 117 546ZM104 551C104 551.5 105.1 552 106.5 552C108.2 552 110.6 553.5 113.5 556.5L118 560.9V570.5C118 576.2 118.4 580 119 580C119.6 580 120 585 120 593C120 601 120.4 606 121 606C121.6 606 122 611 122 619C122 627 122.4 632 123 632C123.6 632 124 637 124 645C124 653 124.4 658 125 658C125.6 658 126 662.7 126 670C126 677.3 126.4 682 127 682C127.6 682 128 687.3 128 696C128 704.7 128.4 710 129 710C129.6 710 130 715 130 723C130 731 130.4 736 131 736C131.6 736 132 741 132 749C132 757 132.4 762 133 762C133.6 762 134 767 134 775C134 783 134.4 788 135 788C135.6 788 136 793 136 801C136 809 136.4 814 137 814C137.6 814 138 819 138 827C138 835 138.4 840 139 840C139.6 840 140 845.3 140 854C140 862.7 140.4 868 141 868C141.6 868 142 873 142 881C142 889 142.4 894 143 894C143.6 894 144 899 144 907C144 915 144.4 920 145 920C145.6 920 146 925 146 933C146 941 146.4 946 147 946C147.6 946 148 951.3 148 960C148 968.7 148.4 974 149 974C149.6 974 150 977.2 150 981.6C150 989.2 148.9 992 145.8 992C145 992 143.8 992.9 143 994C142.2 995.1 140.8 996 139.8 996C138.8 996 138 996.4 138 997C138 997.5 137.1 998 136 998C134.9 998 134 998.4 134 999C134 999.5 133.1 1000 132 1000C130.9 1000 130 1000.4 130 1001C130 1001.5 129.2 1002 128.2 1002C127.2 1002 125.8 1002.9 125 1004C124.2 1005.1 122.9 1006 122 1006C121.1 1006 119.8 1006.9 119 1008C118.2 1009.1 116.9 1010 116.2 1010C115.4 1010 113.5 1011.3 112 1013C110.5 1014.6 108.5 1016 107.6 1016C106.1 1016 106 1009.2 106 943C106 895 105.7 870 105 870C104.3 870 104 836 104 770C104 704 103.7 670 103 670C102.3 670 102 649.3 102 610C102 570.7 102.3 550 103 550C103.6 550 104 550.4 104 551ZM130 555C130 555.5 130.9 556 132 556C133.1 556 134 556.4 134 557C134 557.5 135.4 558 137 558C139.3 558 140 558.4 140 560C140 561.1 140.5 562 141 562C141.6 562 142 562.9 142 563.9C142 565 142.6 566 143.3 566.3C144 566.5 144.1 567.1 143.6 567.6C143.1 568.1 142.5 568 142.3 567.2C142 566.6 141 566 139.9 566C138.9 566 138 565.5 138 565C138 564.4 137.3 564 136.5 564C134.5 564 128 557.5 128 555.5C128 554.7 128.5 554 129 554C129.6 554 130 554.4 130 555ZM168 557C168 557.5 168.9 558 170 558C171.7 558 172 558.7 172 562C172 567.1 170.2 567.2 165.5 562.5C161.1 558.2 161 556 165 556C166.7 556 168 556.4 168 557ZM182 559C182 559.5 183.8 560 186 560C188.2 560 190 560.4 190 561C190 561.5 189.3 562 188.4 562C187.5 562 185.5 563.3 184 565C182.5 566.6 180.5 568 179.6 568C178.5 568 178 567.1 178 565C178 563.3 178.5 562 179 562C179.6 562 180 562.4 180 563C180 563.5 180.9 564 182 564C183.1 564 184 563.5 184 563C184 562.4 183.3 562 182.4 562C180.9 562 178 559.7 178 558.6C178 558.3 178.9 558 180 558C181.1 558 182 558.4 182 559ZM148.6 561.4C149.4 562.2 150 563.6 150 564.4C150 565.3 150.5 566 151 566C151.6 566 152 566.4 152 567C152 569.1 148.8 567.9 145.5 564.5C143.6 562.6 142 560.8 142 560.5C142 559.4 147.2 560.1 148.6 561.4ZM200.6 561.4C201.5 562.3 202 564.9 202 568.3C202 571.8 202.5 574 203.3 574.3C203.9 574.5 204.2 575.1 203.8 575.5C202.9 576.5 200 573.6 200 571.6C200 570.7 199.6 570 199 570C198.5 570 198 569.1 198 568C198 566.9 197.6 566 197 566C196.5 566 196 564.6 196 563C196 559.7 198.1 559 200.6 561.4ZM160 565C160 566.6 160.5 568 161 568C161.6 568 162 568.4 162 569C162 569.5 161.1 570 160 570C158.9 570 158 569.5 158 569C158 568.4 157.3 568 156.4 568C154.4 568 152 565.6 152 563.6C152 562.4 153 562 156 562C159.8 562 160 562.2 160 565ZM170.6 569.4C171.4 570.2 172 571.6 172 572.4C172 573.3 172.5 574 173 574C173.6 574 174 576.7 174 580C174 583.3 173.7 586 173.4 586C172.3 586 170 583.1 170 581.6C170 580.7 169.6 580 169 580C168.5 580 168 578.6 168 577C168 575.3 167.6 574 167 574C166.5 574 166 572.6 166 571C166 567.7 168.1 567 170.6 569.4ZM134 571C134 571.5 134.9 572 136 572C137.1 572 138 572.4 138 573C138 573.5 140.3 574 143 574C147.9 574 148 574.1 148 577C148 578.6 148.5 580 149 580C149.6 580 150 582.7 150 586C150 589.3 150.4 592 151 592C151.6 592 152 594.7 152 598C152 601.3 152.4 604 153 604C153.6 604 154 606.2 154 609C154 611.7 154.5 614 155 614C155.6 614 156 615.8 156 618C156 620.2 156.5 622 157 622C157.6 622 158 624.2 158 627C158 629.7 158.5 632 159 632C159.6 632 160 633.8 160 636C160 638.2 160.5 640 161 640C161.6 640 162 641.8 162 644C162 646.2 162.5 648 163 648C163.6 648 164 649.8 164 652C164 654.2 164.5 656 165 656C165.6 656 166 657.3 166 659C166 660.6 166.5 662 167 662C167.6 662 168 662.9 168 664C168 665.1 167.6 666 167 666C166.5 666 166 668.2 166 671C166 673.7 166.5 676 167 676C167.6 676 168 677.3 168 679C168 680.6 167.6 682 167 682C166.5 682 166 682.9 166 684C166 685.1 165.6 686 165 686C164.5 686 164 687.3 164 689C164 690.6 163.6 692 163 692C162.5 692 162 693.8 162 696C162 698.2 161.6 700 161 700C160.5 700 160 701.8 160 704C160 706.2 159.6 708 159 708C158.5 708 158 709.3 158 711C158 712.6 157.6 714 157 714C156.4 714 156 716.7 156 720C156 723.3 156.4 726 157 726C157.6 726 158 726.9 158 728C158 729.1 157.6 730 157 730C156.4 730 156 732.7 156 736C156 739.3 155.6 742 155 742C154.4 742 154 746 154 752C154 758 153.6 762 153 762C152.4 762 152 765.7 152 771C152 776.3 151.6 780 151 780C150.4 780 150 782.6 150 785.9C150 789.7 149.6 792 148.8 792.2C147.9 792.5 148 793.1 149.2 794.3C150.6 795.8 153.5 796 170.4 796H190V809C190 817 190.4 822 191 822C191.6 822 192 825 192 829C192 833 192.4 836 193 836C193.6 836 194 838.2 194 841C194 843.7 194.5 846 195 846C195.6 846 196 847.3 196 849C196 850.6 196.5 852 197 852C197.6 852 198 853.3 198 855C198 856.6 198.5 858 199 858C199.6 858 200 858.9 200 860C200 861.1 200.5 862 201 862C201.6 862 202 862.9 202 864C202 865.1 202.5 866 203 866C203.6 866 204 870 204 876C204 882 204.4 886 205 886C205.6 886 206 889.9 206 895.6C206 905.9 205.1 908 200.8 908C199.5 908 197.8 908.9 197 910C196.2 911.1 194.8 912 193.8 912C192.8 912 192 912.4 192 913C192 913.5 191.1 914 190 914C188.9 914 188 914.4 188 915C188 915.5 187.1 916 186 916C184.9 916 184 916.4 184 917C184 917.5 183.2 918 182.2 918C181.2 918 179.8 918.9 179 920C178.2 921.1 176.9 922 176 922C175.1 922 173.8 922.9 173 924C172.2 925.1 171 926 170.2 926C169.5 926 166.7 928.3 164 931C157 938.2 156 937.8 156 928C156 923.3 155.6 920 155 920C154.4 920 154 915.7 154 909C154 902.3 153.6 898 153 898C152.4 898 152 893.3 152 886C152 878.7 151.6 874 151 874C150.4 874 150 869.3 150 862C150 854.7 149.6 850 149 850C148.4 850 148 844.7 148 836C148 827.3 147.6 822 147 822C146.4 822 146 816.7 146 808C146 799.3 145.6 794 145 794C144.4 794 144 788 144 778C144 768 143.6 762 143 762C142.4 762 142 756 142 746C142 736 141.6 730 141 730C140.4 730 140 724.3 140 715C140 705.7 139.6 700 139 700C138.4 700 138 694.3 138 685C138 675.7 137.6 670 137 670C136.4 670 136 664.7 136 656C136 647.3 135.6 642 135 642C134.4 642 134 635.3 134 624C134 612.7 133.6 606 133 606C132.4 606 132 599.3 132 588C132 576.7 132.4 570 133 570C133.6 570 134 570.4 134 571ZM199.5 576.5C200.9 577.8 202 579.6 202 580.5C202 581.3 202.5 582 203 582C203.6 582 204 584.2 204 587C204 589.7 203.6 592 203 592C202.5 592 202 591.5 202 591C202 590.4 201.6 590 201 590C199.2 590 199.9 593.5 202 595C203.1 595.8 204 597.2 204 598.2C204 599.2 204.5 600 205 600C205.6 600 206 601.8 206 604C206 606.2 205.7 608 205.4 608C204.3 608 202 605.1 202 603.6C202 602.7 201.6 602 201 602C200.5 602 200 601.1 200 600C200 598.9 199.6 598 199 598C198.5 598 198 596.2 198 594C198 591.8 198.5 590 199 590C199.6 590 200 589.1 200 588C200 586.9 199.6 586 199 586C198.5 586 198 583.7 198 581C198 578.2 197.6 576 197 576C196.5 576 196 575.5 196 575C196 573.4 196.9 573.8 199.5 576.5ZM190 578C190 579.1 190.5 580 191 580C191.6 580 192 583.3 192 588C192 592.7 192.4 596 193 596C193.6 596 194 599 194 603C194 607 194.4 610 195 610C195.6 610 196 612.7 196 616C196 619.3 196.4 622 197 622C197.6 622 198 624.2 198 627C198 629.7 197.6 632 197 632C196.5 632 196 632.9 196 634C196 635.1 195.6 636 195 636C194.5 636 194 636.9 194 638C194 639.1 194.5 640 195 640C195.6 640 196 640.9 196 642C196 643.1 196.5 644 197 644C198.8 644 198.1 649.5 196 651C194.9 651.8 194 653.2 194 654.2C194 655.2 193.6 656 193 656C192.5 656 192 657.8 192 660C192 662.2 191.6 664 191 664C190.4 664 190 666.9 190 670.6C190 676.5 188.7 680 186.6 680C186.3 680 186 676.9 186 673.2C186 667.6 185.7 666.2 184 665C182.1 663.6 182 662.4 182 639.8C182 624.6 181.6 616 181 616C180.4 616 180 610.8 180 602.4V588.8L183 586C184.7 584.5 186 582.5 186 581.6C186 580.7 186.5 580 187 580C187.6 580 188 579.1 188 578C188 576.9 188.5 576 189 576C189.6 576 190 576.9 190 578ZM170.6 587.4C171.4 588.2 172 589.6 172 590.4C172 591.3 172.5 592 173 592C173.6 592 174 593.8 174 596C174 598.2 173.7 600 173.4 600C172.3 600 170 597.1 170 595.6C170 594.7 169.6 594 169 594C168.5 594 168 592.2 168 590C168 585.7 168.4 585.3 170.6 587.4ZM170.6 601.4C171.4 602.2 172 603.6 172 604.4C172 605.3 172.5 606 173 606C173.6 606 174 606.9 174 608C174 609.1 174.5 610 175 610C175.6 610 176 611.3 176 613C176 614.6 176.5 616 177 616C177.6 616 178 616.4 178 617C178 617.5 177.1 618 176 618C174.7 618 174 617.3 174 616.2C174 615.2 173.1 613.8 172 613C170.9 612.2 170 610.8 170 609.8C170 608.8 169.6 608 169 608C168.5 608 168 606.2 168 604C168 599.7 168.4 599.3 170.6 601.4ZM202.6 613.4C203.4 614.2 204 615.6 204 616.4C204 617.3 204.5 618 205 618C205.6 618 206 618.9 206 620C206 621.3 205.3 622 204 622C202.7 622 202 621.3 202 620C202 618.9 201.6 618 201 618C200.5 618 200 616.6 200 615C200 611.6 200.5 611.3 202.6 613.4ZM172.6 617.4C173.4 618.2 174 619.6 174 620.4C174 621.3 174.5 622 175 622C175.6 622 176 622.9 176 624C176 625.1 176.5 626 177 626C177.6 626 178 628.7 178 632C178 635.3 177.7 638 177.4 638C176.3 638 174 635.1 174 633.8C174 633 173.1 631.8 172 631C170.3 629.8 170 628.4 170 622.8C170 619.1 170.3 616 170.6 616C170.9 616 171.8 616.6 172.6 617.4ZM204 626C204 627.1 203.6 628 203 628C202.5 628 202 627.1 202 626C202 624.9 202.5 624 203 624C203.6 624 204 624.9 204 626ZM206 633C206 633.5 206.9 634 208 634C211.1 634 210.8 640.3 207.5 643.5C206.2 644.9 204.6 646 204 646C202.1 646 198 641.2 198 639C198 637.9 199 635.8 200.3 634.5C202.5 632.1 206 631.2 206 633ZM174.6 639.4C175.4 640.2 176 641.6 176 642.4C176 643.3 176.5 644 177 644C177.6 644 178 645.3 178 647C178 648.6 178.5 650 179 650C179.6 650 180 651.8 180 654C180 657.3 179.7 658 178 658C176.7 658 176 657.3 176 656C176 654.9 175.6 654 175 654C174.5 654 174 653.1 174 652C174 650.9 173.6 650 173 650C172.4 650 172 647.3 172 644C172 637.7 172.3 637.1 174.6 639.4ZM209.5 650.5C210.9 651.8 212 653.6 212 654.5C212 655.3 212.5 656 213 656C213.6 656 214 656.9 214 658C214 659.1 214.5 660 215 660C215.6 660 216 661.8 216 664C216 666.2 216.5 668 217 668C217.6 668 218 671 218 675C218 679 217.6 682 217 682C216.5 682 216 681.5 216 681C216 680.4 212 680 206 680C200 680 196 680.4 196 681C196 681.5 195.6 682 195 682C194.4 682 194 679 194 675C194 671 194.4 668 195 668C195.6 668 196 665.7 196 663C196 660.2 196.5 658 197 658C197.6 658 198 657.1 198 656C198 654.9 198.5 654 199 654C199.6 654 200 653.3 200 652.5C200 647.9 205.7 646.7 209.5 650.5ZM182.6 667.4C183.4 668.2 184 670.8 184 673.4C184 677.3 183.7 678 182 678C180.9 678 180 677.5 180 677C180 676.4 178.7 676 177 676C175.4 676 174 676.4 174 677C174 677.5 173.6 678 173 678C171.6 678 171.8 669.2 173.3 667.5C174.9 665.6 180.7 665.6 182.6 667.4ZM183.5 682.5C184.9 683.8 186 685.6 186 686.5C186 687.3 186.5 688 187 688C187.6 688 188 689.3 188 691C188 692.6 188.5 694 189 694C189.6 694 190 695.3 190 697C190 698.6 190.5 700 191 700C191.6 700 192 702.7 192 706C192 711.3 191.8 712 190 712C188.9 712 188 711.5 188 711C188 710.4 183.7 710 177 710C170.3 710 166 710.4 166 711C166 711.5 165.1 712 164 712C162.3 712 162 711.3 162 708C162 705.8 162.5 704 163 704C163.6 704 164 702.2 164 700C164 697.8 164.5 696 165 696C165.6 696 166 694.6 166 693C166 691.3 166.5 690 167 690C167.6 690 168 689.3 168 688.5C168 687.6 169.5 685.4 171.3 683.5C175.4 679.2 179.9 678.8 183.5 682.5ZM204 713C204 719.7 204.4 724 205 724C205.6 724 206 728.7 206 736C206 743.3 205.6 748 205 748C204.5 748 204 745.7 204 743C204 740.2 203.6 738 203 738C202.4 738 202 735 202 731C202 727 201.6 724 201 724C200.5 724 200 725.3 200 727C200 728.6 199.6 730 199 730C198.5 730 198 728.2 198 726C198 723.8 197.6 722 197 722C196.4 722 196 719 196 715C196 711 196.4 708 197 708C197.6 708 198 711 198 715C198 719 198.4 722 199 722C199.6 722 200 718.7 200 714C200 709.3 200.4 706 201 706C201.6 706 202 705.1 202 704C202 702.9 202.5 702 203 702C203.6 702 204 706.3 204 713ZM218.6 703.4C219.4 704.2 220 705.6 220 706.4C220 707.3 220.5 708 221 708C221.6 708 222 708.9 222 710C222 711.1 222.5 712 223 712C223.6 712 224 713.3 224 715C224 716.6 224.5 718 225 718C225.6 718 226 720.2 226 723C226 725.7 226.5 728 227 728C227.6 728 228 730.7 228 734C228 737.3 227.6 740 227 740C226.5 740 226 737.7 226 735C226 732.2 225.6 730 225 730C224.5 730 224 728.6 224 727C224 725.3 223.6 724 223 724C222.5 724 222 722.6 222 721C222 719.3 221.6 718 221 718C220.5 718 220 717.1 220 716C220 714.9 219.6 714 219 714C218.5 714 218 712.6 218 711C218 709.3 217.6 708 217 708C216.5 708 216 706.6 216 705C216 701.6 216.5 701.3 218.6 703.4ZM210 715C210 719 210.4 722 211 722C211.6 722 212 724.2 212 727C212 729.7 212.5 732 213 732C213.6 732 214 733.3 214 735C214 736.6 214.5 738 215 738C215.6 738 216 738.9 216 740C216 741.1 216.5 742 217 742C217.6 742 218 742.9 218 744C218 745.1 218.5 746 219 746C219.6 746 220 748.2 220 751C220 755.3 219.7 756 218 756C216.9 756 216 756.4 216 757C216 757.5 215.1 758 214 758C212.4 758 212 757.3 212 755C212 753.3 211.6 752 211 752C210.4 752 210 747 210 739C210 731 209.6 726 209 726C208.4 726 208 722.3 208 717C208 711.7 208.4 708 209 708C209.6 708 210 711 210 715ZM214.6 709.4C215.4 710.2 216 712 216 713.4C216 714.8 216.5 716 217 716C217.6 716 218 716.9 218 718C218 719.1 218.5 720 219 720C219.6 720 220 721.8 220 724C220 726.2 220.5 728 221 728C221.6 728 222 729.8 222 732C222 734.2 222.5 736 223 736C223.6 736 224 738.2 224 741C224 743.7 223.6 746 223 746C222.5 746 222 745.1 222 744C222 742.9 221.6 742 221 742C220.5 742 220 741.1 220 740C220 738.9 219.6 738 219 738C218.5 738 218 736.6 218 735C218 733.3 217.6 732 217 732C216.5 732 216 730.2 216 728C216 725.8 215.6 724 215 724C214.4 724 214 721 214 717C214 713 213.6 710 213 710C212.5 710 212 709.5 212 709C212 707.6 212.9 707.8 214.6 709.4ZM178 733C178 733.5 177.6 734 177 734C176.4 734 176 742.3 176 757C176 771.7 176.4 780 177 780C177.6 780 178 781.8 178 784C178 786.2 178.5 788 179 788C179.6 788 180 788.9 180 790C180 791.1 180.5 792 181 792C181.6 792 182 792.4 182 793C182 794.8 178.9 794 176.5 791.5C175.1 790.2 174 788.4 174 787.5C174 786.7 173.6 786 173 786C172.5 786 172 784.2 172 782C172 779.8 171.6 778 171 778C170.4 778 170 771.7 170 761C170 750.3 170.4 744 171 744C171.6 744 172 742.4 172 740.5C172 738.2 172.8 736.1 174.3 734.5C176.7 731.9 178 731.4 178 733ZM182 736C182 737.1 181.6 738 181 738C180.5 738 180 737.1 180 736C180 734.9 180.5 734 181 734C181.6 734 182 734.9 182 736ZM188 750C188 757.3 188.4 762 189 762C189.6 762 190 765.3 190 770C190 774.7 190.4 778 191 778C191.6 778 192 779.8 192 782C192 784.2 192.5 786 193 786C194.5 786 194.2 790.9 192.6 792.6C190.3 794.8 186 794.4 186 792C186 790.9 185.6 790 185 790C184.4 790 184 785.3 184 778C184 770.7 183.6 766 183 766C182.5 766 182 764.2 182 762C182 759.8 182.5 758 183 758C183.6 758 184 754 184 748C184 738.7 184.1 738 186 738C187.9 738 188 738.7 188 750ZM164 743C164 744.6 163.6 746 163 746C162.4 746 162 749 162 753C162 757 161.6 760 161 760C160.4 760 160 765.3 160 774C160 782.7 159.6 788 159 788C158.5 788 158 788.9 158 790C158 791.3 157.3 792 156 792C154.9 792 154 791.5 154 791C154 790.4 154.5 790 155 790C155.6 790 156 787.3 156 784C156 780.7 156.4 778 157 778C157.6 778 158 773.7 158 767C158 760.3 158.4 756 159 756C159.6 756 160 753.7 160 751C160 748.2 160.5 746 161 746C161.6 746 162 744.6 162 743C162 741.3 162.5 740 163 740C163.6 740 164 741.3 164 743ZM168 762C168 776 168.4 784 169 784C169.6 784 170 785.3 170 787C170 788.6 170.5 790 171 790C171.6 790 172 790.9 172 792C172 793.6 171.3 794 168.4 794C166.5 794 164.2 793.4 163.4 792.6C161.8 791 161.5 784 163 784C163.6 784 164 778.3 164 769C164 759.7 164.4 754 165 754C165.6 754 166 751 166 747C166 743 166.4 740 167 740C167.6 740 168 748 168 762ZM180 759C180 771 179.6 778 179 778C178.4 778 178 771 178 759C178 747 178.4 740 179 740C179.6 740 180 747 180 759ZM198 758C198 760.2 198.5 762 199 762C199.6 762 200 765 200 769C200 773 199.6 776 199 776C198.4 776 198 773.3 198 770C198 766.7 197.6 764 197 764C196.5 764 196 761.7 196 759C196 756.2 196.5 754 197 754C197.6 754 198 755.8 198 758ZM194 764C194 768.7 194.4 772 195 772C195.6 772 196 773.8 196 776C196 778.2 195.6 780 195 780C194.5 780 194 778.2 194 776C194 773.8 193.6 772 193 772C192.4 772 192 768.7 192 764C192 759.3 192.4 756 193 756C193.6 756 194 759.3 194 764ZM232 766C232 768.2 232.5 770 233 770C233.6 770 234 771.3 234 773C234 774.6 234.5 776 235 776C235.6 776 236 777.8 236 780C236 782.2 236.5 784 237 784C237.6 784 238 785.8 238 788C238 790.2 238.5 792 239 792C239.6 792 240 794.2 240 797C240 799.7 240.5 802 241 802C241.6 802 242 805.3 242 810C242 817.3 241.8 818 240 818C238.9 818 238 818.4 238 819C238 819.5 237.3 820 236.4 820C235.5 820 233.5 821.3 232 823C230.5 824.6 228.7 826 228.1 826C226.4 826 212 840.7 212 842.5C212 843.3 211.1 844 210 844C208.3 844 208 843.3 208 839C208 836.2 207.6 834 207 834C206.4 834 206 830.7 206 826C206 821.3 205.6 818 205 818C204.4 818 204 815 204 811C204 807 203.6 804 203 804C202.5 804 202 801.5 202 798.4C202 793.5 202.4 792.5 205 790C207.8 787.4 208 786.8 208 779.6C208 775.2 207.6 772 207 772C206.5 772 206 771.1 206 770C206 768.3 206.7 768 210 768C212.2 768 214 767.5 214 767C214 766.4 215.8 766 218 766C220.2 766 222 765.5 222 765C222 764.4 222.9 764 224 764C225.1 764 226 763.5 226 763C226 762.4 227.4 762 229 762C231.8 762 232 762.2 232 766Z" fill="black"/>
<path d="M176 117C176 122.3 175.6 126 175 126C174.4 126 174 133.3 174 146C174 158.7 173.6 166 173 166C172.4 166 172 172 172 182C172 192 171.6 198 171 198C170.4 198 170 203.3 170 212C170 220.7 169.6 226 169 226C168.4 226 168 230.7 168 238C168 245.3 167.6 250 167 250C166.4 250 166 254 166 260C166 266 165.6 270 165 270C164.4 270 164 273.3 164 278C164 282.7 163.6 286 163 286C162.4 286 162 288.7 162 292C162 295.3 161.6 298 161 298C160.4 298 160 301 160 305C160 309 159.6 312 159 312C158.5 312 158 314.2 158 317C158 319.7 157.6 322 157 322C156.5 322 156 324.2 156 327C156 329.7 155.6 332 155 332C154.5 332 154 334.2 154 337C154 339.7 153.6 342 153 342C152.5 342 152 343.8 152 346C152 348.2 151.6 350 151 350C150.5 350 150 352.2 150 355C150 357.7 149.6 360 149 360C148.5 360 148 362.2 148 365C148 367.7 147.6 370 147 370C146.5 370 146 371.8 146 374C146 376.2 145.6 378 145 378C144.5 378 144 379.8 144 382C144 384.2 143.6 386 143 386C142.5 386 142 387.8 142 390C142 392.2 141.6 394 141 394C140.5 394 140 395.8 140 398C140 400.2 139.6 402 139 402C138.5 402 138 403.8 138 406C138 408.2 137.6 410 137 410C136.5 410 136 411.3 136 413C136 414.6 136.5 416 137 416C137.6 416 138 414.6 138 413C138 411.3 138.5 410 139 410C139.6 410 140 408.2 140 406C140 403.8 140.5 402 141 402C141.6 402 142 400.6 142 399C142 397.3 142.5 396 143 396C143.6 396 144 394.6 144 393C144 391.3 144.5 390 145 390C145.6 390 146 388.6 146 387C146 385.3 146.5 384 147 384C147.6 384 148 382.6 148 381C148 379.3 148.5 378 149 378C149.6 378 150 376.2 150 374C150 371.8 150.5 370 151 370C151.6 370 152 368.6 152 367C152 365.3 152.5 364 153 364C153.6 364 154 362.2 154 360C154 357.8 154.5 356 155 356C155.6 356 156 354.2 156 352C156 349.8 156.5 348 157 348C157.6 348 158 346.2 158 344C158 341.8 158.5 340 159 340C159.6 340 160 338.2 160 336C160 333.8 160.5 332 161 332C161.6 332 162 329.7 162 327C162 324.2 162.5 322 163 322C163.6 322 164 319.7 164 317C164 314.2 164.5 312 165 312C165.6 312 166 309.3 166 306C166 302.7 166.4 300 167 300C167.6 300 168 297 168 293C168 289 168.4 286 169 286C169.6 286 170 282.7 170 278C170 273.3 170.4 270 171 270C171.6 270 172 266 172 260C172 254 172.4 250 173 250C173.6 250 174 245.3 174 238C174 230.7 174.4 226 175 226C175.6 226 176 219.3 176 208C176 196.7 176.4 190 177 190C177.7 190 178 175.7 178 149C178 122.3 177.7 108 177 108C176.4 108 176 111.7 176 117Z" fill="black"/>
<path d="M255.3 227.5C254.6 228.3 254 229.6 254 230.5C254 231.3 253.6 232 253 232C252.5 232 252 232.9 252 234C252 235.1 251.6 236 251 236C250.5 236 250 236.9 250 238C250 239.1 249.6 240 249 240C248.5 240 248 240.9 248 242C248 243.1 247.6 244 247 244C246.5 244 246 244.9 246 246C246 247.1 245.6 248 245 248C244.5 248 244 250.2 244 253C244 255.7 243.6 258 243 258C242.5 258 242 260.2 242 263C242 265.7 241.6 268 241 268C240.5 268 240 270.2 240 273C240 275.7 239.6 278 239 278C238.5 278 238 279.8 238 282C238 284.2 237.6 286 237 286C236.5 286 236 288.2 236 291C236 293.7 235.6 296 235 296C234.5 296 234 297.3 234 299C234 300.6 233.6 302 233 302C232.5 302 232 303.8 232 306C232 308.2 231.6 310 231 310C230.5 310 230 311.8 230 314C230 316.2 229.6 318 229 318C228.5 318 228 319.3 228 321C228 322.6 227.6 324 227 324C226.5 324 226 325.3 226 327C226 328.6 225.6 330 225 330C224.5 330 224 331.3 224 333C224 334.6 223.6 336 223 336C222.5 336 222 337.3 222 339C222 340.6 221.6 342 221 342C220.5 342 220 343.3 220 345C220 346.6 219.6 348 219 348C218.5 348 218 348.9 218 350C218 351.1 217.6 352 217 352C216.5 352 216 353.3 216 355C216 356.6 215.6 358 215 358C214.5 358 214 359.3 214 361C214 362.6 213.6 364 213 364C212.5 364 212 364.9 212 366C212 367.1 211.6 368 211 368C210.5 368 210 368.9 210 370C210 371.1 209.6 372 209 372C208.5 372 208 373.3 208 375C208 376.6 207.6 378 207 378C206.5 378 206 378.9 206 380C206 381.1 205.6 382 205 382C204.5 382 204 383.3 204 385C204 386.6 203.6 388 203 388C202.5 388 202 388.9 202 390C202 391.1 201.6 392 201 392C200.5 392 200 393.3 200 395C200 396.6 199.6 398 199 398C198.5 398 198 398.9 198 400C198 401.1 197.6 402 197 402C196.5 402 196 402.9 196 404C196 405.1 195.6 406 195 406C194.5 406 194 407.3 194 409C194 410.6 193.6 412 193 412C192.5 412 192 412.9 192 414C192 415.1 191.6 416 191 416C190.5 416 190 416.9 190 418C190 419.1 189.6 420 189 420C188.5 420 188 420.9 188 422C188 423.1 187.6 424 187 424C186.5 424 186 424.9 186 426C186 427.1 185.6 428 185 428C184.5 428 184 429.3 184 431C184 432.6 183.6 434 183 434C182.5 434 182 434.9 182 436C182 437.1 181.6 438 181 438C180.5 438 180 438.9 180 440C180 441.1 179.6 442 179 442C178.5 442 178 442.9 178 444C178 445.1 177.6 446 177 446C176.5 446 176 446.9 176 448C176 449.1 175.6 450 175 450C174.5 450 174 450.9 174 452C174 453.1 173.6 454 173 454C172.5 454 172 454.9 172 456C172 457.1 171.6 458 171 458C170.5 458 170 458.9 170 460C170 461.1 169.6 462 169 462C168.5 462 168 462.9 168 464C168 465.1 167.6 466 167 466C166.5 466 166 466.9 166 468C166 469.1 165.6 470 165 470C164.5 470 164 470.9 164 472C164 473.1 163.6 474 163 474C162.5 474 162 474.9 162 476C162 477.1 161.6 478 161 478C160.5 478 160 478.9 160 480C160 481.1 159.6 482 159 482C158.5 482 158 482.9 158 484C158 485.1 157.6 486 157 486C156.5 486 156 486.9 156 488C156 489.1 155.6 490 155 490C154.5 490 154 490.9 154 492C154 493.1 153.6 494 153 494C152.5 494 152 494.9 152 496C152 497.1 151.6 498 151 498C150.5 498 150 498.9 150 500C150 501.1 149.6 502 149 502C148.5 502 148 502.9 148 504C148 505.1 148.5 506 149 506C149.6 506 150 505.2 150 504.2C150 503.2 150.9 501.8 152 501C153.1 500.2 154 498.9 154 498C154 497.1 154.9 495.8 156 495C157.1 494.2 158 492.8 158 491.8C158 490.8 158.5 490 159 490C159.6 490 160 489.2 160 488.2C160 487.2 160.9 485.8 162 485C163.1 484.2 164 482.9 164 482C164 481.1 164.9 479.8 166 479C167.1 478.2 168 476.8 168 475.8C168 474.8 168.5 474 169 474C169.6 474 170 473.2 170 472.2C170 471.2 170.9 469.8 172 469C173.1 468.2 174 466.8 174 465.8C174 464.8 174.5 464 175 464C175.6 464 176 463.2 176 462.2C176 461.2 176.9 459.8 178 459C179.1 458.2 180 456.8 180 455.8C180 454.8 180.5 454 181 454C181.6 454 182 453.1 182 452C182 450.9 182.5 450 183 450C183.6 450 184 449.2 184 448.2C184 447.2 184.9 445.8 186 445C187.1 444.2 188 442.8 188 441.8C188 440.8 188.5 440 189 440C189.6 440 190 439.1 190 438C190 436.9 190.5 436 191 436C191.6 436 192 435.1 192 434C192 432.9 192.5 432 193 432C193.6 432 194 431.1 194 430C194 428.9 194.5 428 195 428C195.6 428 196 427.1 196 426C196 424.9 196.5 424 197 424C197.6 424 198 423.1 198 422C198 420.9 198.5 420 199 420C199.6 420 200 419.1 200 418C200 416.9 200.5 416 201 416C201.6 416 202 415.1 202 414C202 412.9 202.5 412 203 412C203.6 412 204 411.1 204 410C204 408.9 204.5 408 205 408C205.6 408 206 407.1 206 406C206 404.9 206.5 404 207 404C207.6 404 208 403.1 208 402C208 400.9 208.5 400 209 400C209.6 400 210 399.1 210 398C210 396.9 210.5 396 211 396C211.6 396 212 394.6 212 393C212 391.3 212.5 390 213 390C213.6 390 214 389.1 214 388C214 386.9 214.5 386 215 386C215.6 386 216 385.1 216 384C216 382.9 216.5 382 217 382C217.6 382 218 380.6 218 379C218 377.3 218.5 376 219 376C219.6 376 220 375.1 220 374C220 372.9 220.5 372 221 372C221.6 372 222 370.6 222 369C222 367.3 222.5 366 223 366C223.6 366 224 365.1 224 364C224 362.9 224.5 362 225 362C225.6 362 226 360.6 226 359C226 357.3 226.5 356 227 356C227.6 356 228 354.6 228 353C228 351.3 228.5 350 229 350C229.6 350 230 348.6 230 347C230 345.3 230.5 344 231 344C231.6 344 232 342.6 232 341C232 339.3 232.5 338 233 338C233.6 338 234 336.6 234 335C234 333.3 234.5 332 235 332C235.6 332 236 330.6 236 329C236 327.3 236.5 326 237 326C237.6 326 238 324.6 238 323C238 321.3 238.5 320 239 320C239.6 320 240 318.6 240 317C240 315.3 240.5 314 241 314C241.6 314 242 312.2 242 310C242 307.8 242.5 306 243 306C243.6 306 244 304.6 244 303C244 301.3 244.5 300 245 300C245.6 300 246 298.2 246 296C246 293.8 246.5 292 247 292C247.6 292 248 290.2 248 288C248 285.8 248.5 284 249 284C249.6 284 250 282.2 250 280C250 277.8 250.5 276 251 276C251.6 276 252 273.7 252 271C252 268.2 252.5 266 253 266C253.6 266 254 263.3 254 260C254 256.7 254.4 254 255 254C255.6 254 256 249.7 256 243C256 236.3 256.4 232 257 232C257.6 232 258 230.6 258 229C258 225.7 257.2 225.3 255.3 227.5Z" fill="black"/>
<path d="M110 261C110 262.6 110.5 264 111 264C111.6 264 112 262.6 112 261C112 259.3 111.6 258 111 258C110.5 258 110 259.3 110 261Z" fill="black"/>
</svg>
