<!-- icon666.com - MILLIONS vector ICONS FREE --><svg viewBox="0 0 32 32" xmlns="http://www.w3.org/2000/svg"><g id="open_message" fill-rule="evenodd" data-name="open message"><path d="m16 1.5a14.5 14.5 0 1 0 14.5 14.5 14.507 14.507 0 0 0 -14.5-14.5zm0 28a13.5 13.5 0 1 1 13.5-13.5 13.506 13.506 0 0 1 -13.5 13.5z" fill="#000000" style="fill: rgb(255, 255, 255);"></path><path d="m23.218 11.05-6.994-3.5a.5.5 0 0 0 -.448 0l-6.994 3.5a.5.5 0 0 0 -.282.45v10.5a.5.5 0 0 0 .5.5h14a.5.5 0 0 0 .5-.5v-10.5a.5.5 0 0 0 -.282-.45zm-7.218-2.491 6.11 3.055-6.11 5.347-6.11-5.347zm-6.5 4.041 4.166 3.645-4.166 4.483zm.647 8.9 4.272-4.594 1.252 1.094a.5.5 0 0 0 .658 0l1.252-1.095 4.272 4.595zm12.353-.772-4.166-4.481 4.166-3.647z" fill="#000000" style="fill: rgb(255, 255, 255);"></path></g></svg>