<?xml version="1.0" encoding="UTF-8"?>
<!DOCTYPE svg PUBLIC "-//W3C//DTD SVG 1.1//EN" "http://www.w3.org/Graphics/SVG/1.1/DTD/svg11.dtd">
<!-- Creator: CorelDRAW X7 -->
<svg xmlns="http://www.w3.org/2000/svg" xml:space="preserve" width="210mm" height="297mm" version="1.1" style="shape-rendering:geometricPrecision; text-rendering:geometricPrecision; image-rendering:optimizeQuality; fill-rule:evenodd; clip-rule:evenodd"
viewBox="0 0 21000 29700"
 xmlns:xlink="http://www.w3.org/1999/xlink">
 <defs>
  <style type="text/css">
   <![CDATA[
    .fil0 {fill:#FEFEFE}
    .fil2 {fill:#D7AA3F}
    .fil3 {fill:#D7AA3F}
    .fil1 {fill:#D7AA3F;fill-rule:nonzero}
   ]]>
  </style>
 </defs>
 <g id="Слой_x0020_1">
  <metadata id="CorelCorpID_0Corel-Layer"/>
  <g id="_1883480037296">
   <g>
    <path class="fil0" d="M10500 5079c5396,0 9771,4375 9771,9771 0,5396 -4375,9771 -9771,9771 -5396,0 -9771,-4375 -9771,-9771 0,-5396 4375,-9771 9771,-9771z"/>
    <g>
     <path class="fil1" d="M4070 18764c118,8 214,42 287,102 74,60 110,138 110,232 0,76 -24,145 -74,206 -49,62 -115,110 -198,144 -84,35 -175,52 -273,52 -64,0 -125,-7 -182,-21 -58,-14 -103,-34 -134,-59 -12,-7 -20,-13 -23,-18 -3,-5 -5,-15 -6,-31l-26 -286c0,-2 4,-5 12,-6 8,-1 12,0 14,4 11,72 36,137 75,196 39,59 86,104 143,138 56,33 115,49 177,49 75,0 132,-32 171,-96 39,-64 58,-143 58,-236 0,-114 -30,-201 -90,-259 -60,-59 -145,-88 -255,-88 -6,0 -8,-4 -8,-13 0,-8 2,-12 8,-12 102,0 177,-27 227,-81 51,-53 76,-129 76,-226 0,-97 -17,-172 -50,-222 -33,-51 -82,-76 -147,-76 -48,0 -96,16 -144,49 -48,33 -90,79 -127,137 -37,58 -64,122 -83,194 -1,5 -5,6 -12,5 -7,-2 -11,-4 -11,-7l30 -300c3,-17 5,-28 8,-34 3,-6 11,-11 24,-15 108,-38 221,-57 338,-57 93,0 171,13 235,39 63,26 111,61 143,104 32,43 47,90 47,141 0,80 -34,153 -103,217 -69,65 -148,110 -237,134zm2583 711c-3,0 -4,-4 -4,-13 0,-8 1,-13 4,-13 50,0 86,-3 108,-10 23,-7 38,-21 47,-41 8,-21 12,-52 12,-95l0 -979c0,-43 -4,-74 -12,-93 -9,-20 -24,-34 -47,-42 -22,-7 -58,-11 -108,-11 -3,0 -4,-5 -4,-13 0,-8 1,-13 4,-13l114 2c65,3 118,5 157,5 47,0 105,-2 176,-5l118 -2c4,0 7,5 7,13 0,8 -3,13 -7,13 -48,0 -83,4 -106,11 -22,8 -37,22 -45,42 -8,19 -12,50 -12,93l0 975c0,48 2,80 6,95 3,16 11,26 24,30 13,4 38,6 76,6l322 0c39,0 66,-2 81,-7 15,-5 24,-16 29,-33 4,-17 6,-47 6,-91l0 -975c0,-43 -4,-74 -13,-93 -8,-20 -24,-34 -46,-42 -23,-7 -58,-11 -106,-11 -4,0 -6,-5 -6,-13 0,-8 2,-13 6,-13 72,5 166,7 284,7 39,0 93,-2 160,-5l123 -2c3,0 4,5 4,13 0,8 -1,13 -4,13 -49,0 -85,4 -108,11 -22,8 -38,22 -46,42 -9,19 -13,50 -13,93l0 975c0,48 2,80 5,95 4,16 12,26 25,30 12,4 38,6 78,6l321 0c41,0 69,-2 83,-6 14,-4 23,-14 27,-31 5,-16 7,-47 7,-94l0 -975c0,-43 -4,-74 -12,-93 -8,-20 -23,-34 -46,-42 -24,-7 -59,-11 -107,-11 -3,0 -4,-5 -4,-13 0,-8 1,-13 4,-13l120 2c71,3 129,5 176,5 41,0 92,-2 154,-5l115 -2c4,0 6,5 6,13 0,8 -2,13 -6,13 -48,0 -84,4 -107,11 -23,8 -39,22 -47,42 -7,19 -11,50 -11,93l0 979c0,41 4,72 13,92 10,21 25,35 48,43 23,7 57,11 104,11 4,0 6,5 6,13 0,9 -2,13 -6,13l-2127 0zm2664 -1274c-168,0 -288,109 -362,328 -1,4 -5,6 -12,5 -7,0 -11,-3 -11,-7 6,-57 12,-130 19,-219 7,-90 11,-157 11,-202 0,-7 4,-11 11,-11 8,0 12,4 12,11 0,31 40,46 121,46 121,5 263,7 425,7 83,0 171,-2 264,-5l144 -2c54,0 93,-3 118,-10 24,-7 40,-21 47,-43 2,-5 6,-8 14,-8 8,0 12,3 12,8 -5,43 -9,110 -14,204 -5,93 -7,167 -7,224 0,4 -4,6 -11,6 -7,0 -11,-2 -13,-6 -21,-109 -60,-190 -118,-245 -58,-54 -129,-81 -214,-81 -41,0 -68,9 -81,26 -14,18 -21,52 -21,101l0 975c0,44 5,76 13,96 9,19 25,33 49,40 24,7 62,10 114,10 4,0 6,5 6,13 0,9 -2,13 -6,13 -51,0 -91,-1 -121,-2l-175 -2 -172 2c-29,1 -70,2 -122,2 -4,0 -7,-4 -7,-13 0,-8 3,-13 7,-13 51,0 88,-3 113,-10 25,-7 42,-21 51,-41 9,-21 14,-52 14,-95l0 -979c0,-48 -7,-81 -20,-98 -12,-17 -38,-25 -78,-25zm1627 1299c-131,0 -248,-31 -350,-92 -102,-61 -181,-144 -237,-250 -56,-105 -83,-219 -83,-343 0,-146 36,-270 110,-374 73,-104 167,-182 282,-234 115,-52 232,-78 352,-78 134,0 252,31 354,94 101,63 179,146 234,249 54,103 81,212 81,328 0,128 -34,246 -102,353 -67,107 -158,192 -271,254 -114,62 -237,93 -370,93zm70 -53c79,0 150,-23 213,-69 63,-45 112,-112 147,-201 35,-88 53,-193 53,-316 0,-130 -20,-246 -59,-348 -40,-102 -97,-182 -172,-240 -75,-58 -162,-87 -262,-87 -129,0 -227,48 -296,145 -70,97 -104,232 -104,405 0,137 21,259 62,367 42,108 99,193 172,253 72,61 154,91 246,91zm1234 -152c0,45 5,78 15,98 9,21 28,35 56,44 27,8 71,12 132,12 4,0 6,5 6,13 0,9 -2,13 -6,13 -58,0 -103,-1 -136,-2l-184 -2 -154 2c-28,1 -66,2 -114,2 -5,0 -7,-4 -7,-13 0,-8 2,-13 7,-13 45,0 78,-3 98,-10 20,-7 34,-21 41,-41 7,-21 11,-52 11,-95l0 -979c0,-43 -4,-74 -11,-93 -7,-20 -21,-34 -42,-42 -21,-7 -54,-11 -97,-11 -5,0 -7,-5 -7,-13 0,-8 2,-13 7,-13l112 2c65,3 116,5 154,5 34,0 74,-2 121,-7 18,-1 41,-3 70,-4 28,-1 60,-2 97,-2 144,0 257,30 341,90 83,60 124,153 124,278 0,88 -22,162 -67,222 -45,61 -104,107 -175,138 -71,31 -144,46 -219,46 -38,0 -71,-3 -99,-10 -3,0 -4,-4 -4,-11 0,-4 1,-8 3,-12 2,-5 4,-6 7,-5 21,6 45,9 72,9 65,0 119,-31 162,-91 43,-61 64,-147 64,-258 0,-112 -23,-198 -70,-259 -48,-60 -116,-91 -207,-91 -39,0 -66,10 -80,28 -14,18 -21,54 -21,108l0 967zm2143 154c4,0 6,5 6,13 0,9 -2,13 -6,13l-326 0c-18,0 -35,-6 -49,-17 -15,-11 -41,-41 -78,-88 -36,-47 -96,-131 -180,-251l-57 -80c-49,-72 -86,-122 -110,-151 -24,-29 -49,-50 -75,-62 -26,-12 -60,-18 -102,-18l0 495c0,43 3,74 11,95 8,20 23,34 46,41 22,7 58,10 105,10 5,0 7,5 7,13 0,9 -2,13 -7,13 -49,0 -88,-1 -118,-2l-176 -2 -154 2c-28,1 -66,2 -114,2 -5,0 -7,-4 -7,-13 0,-8 2,-13 7,-13 48,0 83,-3 105,-10 23,-7 39,-21 47,-41 8,-21 13,-52 13,-95l0 -979c0,-43 -5,-74 -13,-93 -8,-20 -24,-34 -45,-42 -22,-7 -57,-11 -105,-11 -4,0 -7,-5 -7,-13 0,-8 3,-13 7,-13l112 2c65,3 116,5 154,5 48,0 108,-2 178,-5l116 -2c5,0 7,5 7,13 0,8 -2,13 -7,13 -46,0 -81,4 -103,12 -23,9 -38,23 -47,44 -8,20 -12,52 -12,94l0 444c38,-1 86,-2 143,-2l223 -305c57,-80 86,-147 86,-201 0,-26 -7,-48 -23,-63 -15,-16 -37,-23 -63,-23 -3,0 -5,-5 -5,-13 0,-8 2,-13 5,-13l97 2c62,3 117,5 165,5 55,0 112,-2 171,-5l91 -2c5,0 7,5 7,13 0,8 -2,13 -7,13 -62,0 -132,22 -209,67 -78,46 -143,102 -197,170l-288 357c55,3 101,13 136,31 35,18 70,45 105,84 34,38 83,101 147,190l38 53c59,82 105,143 138,184 33,41 68,73 103,97 35,24 73,37 114,38zm681 51c-131,0 -247,-31 -350,-92 -102,-61 -181,-144 -237,-250 -55,-105 -83,-219 -83,-343 0,-146 36,-270 110,-374 73,-104 167,-182 282,-234 115,-52 233,-78 352,-78 134,0 252,31 354,94 101,63 179,146 234,249 54,103 81,212 81,328 0,128 -34,246 -101,353 -68,107 -159,192 -272,254 -114,62 -237,93 -370,93zm70 -53c79,0 150,-23 213,-69 63,-45 112,-112 147,-201 35,-88 53,-193 53,-316 0,-130 -20,-246 -59,-348 -40,-102 -97,-182 -172,-240 -75,-58 -162,-87 -262,-87 -129,0 -227,48 -296,145 -70,97 -104,232 -104,405 0,137 21,259 62,367 42,108 99,193 172,253 72,61 155,91 246,91zm2300 2c4,0 7,5 7,13 0,9 -3,13 -7,13 -49,0 -89,-1 -118,-2l-163 -2 -191 2c-25,1 -60,2 -103,2 -5,0 -7,-4 -7,-13 0,-8 2,-13 7,-13 52,0 90,-3 114,-10 24,-7 40,-21 49,-40 8,-20 12,-52 12,-96l0 -802 -658 705 0 97c0,43 5,74 13,95 8,20 25,34 49,41 24,7 62,10 114,10 3,0 4,5 4,13 0,9 -1,13 -4,13 -49,0 -89,-1 -119,-2l-184 -2 -158 2c-29,1 -67,2 -117,2 -3,0 -4,-4 -4,-13 0,-8 1,-13 4,-13 50,0 86,-3 108,-10 23,-7 38,-21 47,-41 8,-21 12,-52 12,-95l0 -979c0,-43 -4,-74 -12,-93 -9,-20 -24,-34 -46,-42 -22,-7 -57,-11 -104,-11 -5,0 -7,-5 -7,-13 0,-8 2,-13 7,-13l114 2c65,3 117,5 156,5 54,0 116,-2 187,-5l116 -2c3,0 4,5 4,13 0,8 -1,13 -4,13 -51,0 -88,4 -112,12 -24,9 -41,23 -50,44 -9,20 -14,52 -14,94l0 791 658 -702 0 -89c0,-42 -4,-74 -12,-94 -9,-21 -25,-35 -49,-44 -24,-8 -62,-12 -114,-12 -5,0 -7,-5 -7,-13 0,-8 2,-13 7,-13l103 2c71,3 134,5 191,5 38,0 92,-2 163,-5l118 -2c4,0 7,5 7,13 0,8 -3,13 -7,13 -48,0 -83,4 -106,11 -22,8 -38,22 -46,42 -9,19 -13,50 -13,93l0 979c0,43 4,74 13,95 8,20 24,34 46,41 23,7 58,10 106,10zm-728 -1424c36,0 61,-11 78,-32 16,-22 31,-54 45,-97 13,-39 26,-68 39,-88 14,-19 35,-28 65,-28 29,0 52,8 67,23 16,16 24,36 24,62 0,35 -15,68 -45,98 -29,30 -68,54 -116,72 -48,18 -100,26 -155,26 -53,0 -104,-9 -152,-27 -48,-19 -87,-43 -116,-73 -30,-31 -45,-63 -45,-96 0,-26 8,-46 25,-62 16,-15 39,-23 68,-23 33,0 55,9 68,28 13,20 25,49 36,90 13,44 27,76 41,97 15,20 40,30 73,30z"/>
     <path class="fil1" d="M8316 12243c696,50 1260,251 1691,603 431,352 646,806 646,1361 0,448 -145,852 -435,1213 -290,360 -680,642 -1169,845 -489,203 -1023,305 -1604,305 -373,0 -729,-42 -1069,-125 -340,-83 -601,-199 -783,-348 -75,-41 -120,-76 -137,-105 -17,-30 -29,-90 -37,-181l-149 -1678c0,-17 22,-29 68,-38 46,-8 72,0 81,25 66,423 213,806 441,1150 228,344 508,614 839,809 332,194 680,292 1045,292 439,0 773,-189 1001,-566 228,-377 342,-839 342,-1386 0,-672 -177,-1179 -529,-1523 -352,-344 -852,-516 -1498,-516 -33,0 -50,-25 -50,-75 0,-50 17,-75 50,-75 597,0 1042,-157 1337,-472 294,-315 441,-759 441,-1331 0,-571 -97,-1007 -292,-1305 -195,-298 -483,-448 -864,-448 -282,0 -564,98 -846,293 -282,194 -530,462 -746,802 -215,339 -377,721 -485,1143 -8,25 -33,34 -74,25 -42,-8 -63,-20 -63,-37l175 -1766c16,-99 33,-165 49,-199 17,-33 62,-62 137,-87 638,-223 1301,-335 1989,-335 547,0 1007,76 1380,230 374,153 653,356 840,609 186,253 279,528 279,827 0,472 -203,899 -609,1281 -406,381 -870,642 -1392,783z"/>
     <path class="fil1" d="M15696 16400c47,0 47,84 0,84 -290,0 -580,-28 -869,-28 -116,0 -258,5 -424,14 -158,9 -283,14 -376,14 -18,0 -28,-14 -28,-42 0,-28 10,-42 28,-42 121,0 208,-12 261,-38 53,-25 80,-70 80,-135 0,-79 -46,-211 -139,-397l-462 -911 -1731 0 -261 578c-227,507 -18,903 563,903 47,0 47,84 0,84 -83,0 -204,-5 -362,-14 -176,-9 -329,-14 -458,-14 -125,0 -276,5 -452,14 -158,9 -285,14 -383,14 -18,0 -27,-14 -27,-42 0,-28 9,-42 27,-42 291,0 439,-129 591,-365 88,-136 193,-339 313,-608l1509 -3316c18,-28 115,-29 125,0l1738 3421c162,329 296,556 403,681 107,125 218,187 334,187zm-2027 -1674l-817 -1614c-263,586 -489,1085 -728,1614l1545 0z"/>
     <path class="fil1" d="M5766 20918c75,0 142,-18 199,-52l0 -85c-55,36 -116,54 -185,54 -71,0 -131,-23 -178,-68 -48,-46 -71,-104 -71,-173 0,-70 23,-128 71,-173 47,-46 107,-69 178,-69 60,0 118,15 174,47l0 -86c-53,-29 -115,-44 -187,-44 -94,0 -173,30 -236,93 -63,62 -95,138 -95,231 0,93 31,170 94,233 63,61 142,92 236,92zm955 -83c-96,0 -169,-44 -169,-127 0,-77 70,-124 183,-124 70,0 138,20 201,61l0 86c-45,56 -127,104 -215,104zm-26 83c104,0 187,-36 250,-109 10,67 56,99 117,99 28,0 48,-5 61,-14l0 -72c-10,5 -22,8 -36,8 -36,0 -59,-30 -59,-77l0 -255c0,-150 -111,-229 -276,-229 -89,0 -162,19 -222,56l0 90c63,-43 129,-63 202,-63 136,0 204,51 204,155l0 61c-68,-39 -142,-60 -223,-60 -73,0 -133,18 -182,55 -47,37 -71,87 -71,150 0,64 23,114 67,151 47,36 103,54 168,54zm855 -17c7,2 16,2 27,2 98,5 158,-62 186,-136 22,-50 32,-128 37,-184 3,-28 4,-61 5,-100l4 -118 282 0 0 536 92 0 0 -617 -462 0 -5 197c-4,101 -10,167 -31,235 -19,67 -55,102 -110,102 -10,0 -18,0 -25,-1l0 84zm1259 -536c-62,62 -93,139 -93,229 0,90 31,167 93,229 63,63 143,95 241,95 99,0 178,-32 241,-95 63,-62 94,-139 94,-229 0,-90 -31,-167 -94,-229 -63,-64 -142,-96 -241,-96 -98,0 -178,32 -241,96zm481 229c0,68 -23,126 -68,172 -45,46 -103,69 -172,69 -69,0 -127,-23 -171,-69 -45,-46 -68,-104 -68,-172 0,-69 23,-127 68,-173 44,-46 102,-69 171,-69 69,0 127,23 172,69 45,46 68,104 68,173zm718 309l0 -276 381 0 0 276 92 0 0 -619 -92 0 0 260 -381 0 0 -260 -92 0 0 619 92 0zm2230 0l0 -619 -92 0 0 538 -283 0 0 -538 -93 0 0 538 -281 0 0 -538 -93 0 0 619 842 0zm818 0l0 -538 224 0 0 -81 -540 0 0 81 224 0 0 538 92 0zm758 -538c-63,62 -93,139 -93,229 0,90 30,167 93,229 63,63 142,95 241,95 99,0 178,-32 241,-95 63,-62 93,-139 93,-229 0,-90 -30,-167 -93,-229 -63,-64 -142,-96 -241,-96 -99,0 -178,32 -241,96zm481 229c0,68 -23,126 -68,172 -45,46 -103,69 -172,69 -69,0 -127,-23 -172,-69 -45,-46 -68,-104 -68,-172 0,-69 23,-127 68,-173 45,-46 103,-69 172,-69 69,0 127,23 172,69 45,46 68,104 68,173zm718 210c57,76 137,114 239,114 91,0 167,-32 225,-95 57,-62 87,-139 87,-230 0,-90 -30,-167 -87,-230 -58,-62 -134,-94 -225,-94 -102,0 -182,38 -239,114l0 -99 -92 0 0 875 92 0 0 -355zm0 -313c37,-80 124,-139 218,-139 67,0 125,23 170,69 45,46 68,104 68,172 0,68 -23,125 -68,173 -45,46 -103,69 -170,69 -94,0 -182,-58 -218,-140l0 -204z"/>
     <g>
      <path class="fil0" d="M8029 10277c-108,40 -226,58 -340,68 -143,11 -287,9 -430,0 -49,-3 -129,-15 -179,-15 -3,219 3,439 3,659 1,69 8,203 -52,249 -49,39 -200,25 -266,28 -100,5 -198,17 -296,34 44,42 86,76 96,155 11,87 -52,148 -121,187 -109,62 -239,83 -343,145 75,15 189,23 158,154 -16,71 -146,131 -203,172 -136,96 -271,221 -328,382 -18,52 -32,195 -62,230 -44,51 -131,49 -173,-4 -38,-48 -25,-118 -25,-175l0 -2721c0,-210 15,-423 2,-632 -26,18 -52,48 -129,37 -170,-25 -179,-275 -13,-312 83,-19 107,15 141,29 6,-64 11,-125 101,-140l5 -1 1157 -1c70,0 265,-20 313,30 25,26 31,77 35,118 89,6 181,3 270,3 69,0 240,11 297,-4 73,-20 46,-273 430,-200 41,7 79,24 119,32 45,10 54,-16 102,-31 108,-33 186,-7 287,33 38,14 193,-8 256,2 166,25 155,38 175,166l321 -1c39,-63 54,-137 109,-192 62,-61 143,-67 224,-54 49,7 105,42 136,45 41,-4 102,-36 150,-44 114,-20 213,14 299,89 50,43 49,90 43,140 42,-19 74,-40 144,-10 147,63 115,296 -58,304 -85,4 -94,-42 -142,-49 -20,44 -33,113 -50,156 -301,794 -978,1091 -1790,935 -254,-49 -132,-72 -373,4zm1175 -1118c-31,30 -37,57 -92,76 -55,18 -85,-6 -126,-25l6 -50 212 -1zm-1760 -6c-55,48 -161,44 -218,-1l218 1zm2621 -208c-36,-12 -87,-26 -113,-10 -32,20 -60,117 -72,152 -45,129 -99,248 -171,363 -113,182 -280,339 -482,416 -83,32 -291,83 -336,-22 -14,-33 -24,-73 -3,-106 32,-50 140,-58 195,-71 104,-23 190,-62 266,-139 88,-88 148,-159 208,-269 40,-72 113,-220 132,-311 -27,-13 -63,-26 -84,-14 -28,15 -57,99 -69,127 -41,95 -90,174 -166,244 -195,183 -231,159 -446,109 -54,187 -209,413 -342,543 -39,37 -83,67 -124,101 148,36 480,28 587,12 388,-58 651,-275 840,-611 65,-117 166,-369 180,-514zm-1618 29c-34,-7 -77,-12 -99,5 -29,23 -63,133 -78,169 -58,134 -143,239 -253,333 -130,112 -302,178 -472,195 -65,6 -158,22 -208,-30 -60,-62 -28,-168 55,-187 50,-12 99,-9 149,-13 70,-6 132,-24 196,-53 155,-72 306,-238 358,-405 -48,-19 -135,-21 -184,-16 -158,219 -310,438 -615,414 -105,-8 -145,-43 -216,-77l0 795c435,30 797,66 1186,-186 289,-188 498,-564 518,-909 -35,-4 -82,-8 -95,-4 -31,27 -85,182 -105,226 -13,29 -27,58 -43,85 -76,129 -169,274 -281,375 -284,253 -629,351 -1002,264 -41,-10 -105,-22 -136,-50 -40,-38 -48,-111 -12,-155 38,-47 121,-32 174,-23 87,14 173,29 262,30 301,2 520,-158 694,-391 56,-74 179,-282 207,-392zm-2393 2581l255 -99c-47,-48 -120,-65 -130,-177l0 -3 -1 -1046c0,-90 -37,-285 104,-297 162,-15 123,206 123,297 0,232 0,463 0,694l0 157c68,-8 136,-26 204,-32 81,-8 162,-13 242,-12 8,-107 3,-218 3,-324 1,-226 1,-451 1,-677 0,-334 -2,-669 -2,-1004l-1158 0 0 3092 8 -8c23,-23 46,-47 69,-70 38,-40 82,-69 126,-100l-2 -2c-107,-95 -69,-296 -69,-423l1 -1025 1 -5c21,-135 225,-166 225,49l0 1015z"/>
      <path class="fil2" d="M5581 8874c-57,9 -42,66 -49,117l-4 29 -29 0c-81,1 -80,-53 -156,-36 -93,21 -88,165 7,179 79,11 69,-47 149,-50l32 -2 3 32c19,224 2,457 2,682l0 2721c0,31 -10,108 11,133 14,19 51,20 67,2 9,-11 39,-176 50,-208 62,-175 204,-311 353,-416 31,-22 169,-98 176,-131 21,-90 -111,-54 -177,-99l-28 -19 18 -28c12,-18 13,-17 29,-31 7,-6 15,-11 23,-16 109,-67 240,-87 353,-150 43,-25 94,-63 86,-119 -9,-76 -82,-115 -123,-164l-38 -45 58 -11c125,-22 241,-40 368,-46 35,-2 204,5 228,-13 30,-24 26,-163 26,-196 -1,-231 -7,-460 -3,-691l0 -25 23 -7c24,-8 194,9 227,11 139,9 281,11 420,0 107,-9 221,-26 324,-64 259,-82 132,-60 408,-7 781,150 1424,-130 1714,-893 21,-53 36,-137 65,-184l9 -15 18 -1c100,-5 87,54 160,50 102,-4 114,-140 34,-174 -60,-25 -93,19 -150,32l-45 11 4 -47c4,-45 26,-102 -14,-137 -70,-62 -149,-90 -243,-74 -39,7 -136,49 -162,46 -42,-5 -97,-39 -145,-46 -210,-33 -194,115 -277,232l-10 15 -414 1 -5 -28c-22,-128 16,-118 -124,-139 -71,-11 -218,15 -270,-6 -84,-33 -151,-59 -243,-31 -58,18 -60,49 -135,33 -40,-9 -78,-25 -118,-33 -351,-66 -269,164 -400,200 -48,13 -256,6 -314,6 -96,-1 -208,3 -304,-5l-27 -2 -4 -28c-2,-16 -8,-96 -19,-107 -18,-18 -236,-9 -264,-9l-1151 1zm4554 48c-4,151 -117,437 -191,570 -199,354 -480,583 -889,645 -140,21 -559,27 -679,-37l-41 -22 33 -32c52,-51 115,-88 166,-138 131,-128 291,-363 332,-542l7 -33 33 8c210,46 227,93 418,-85 69,-65 112,-135 150,-222 22,-51 47,-131 98,-160 54,-30 121,-1 170,25l21 10 -3 23c-10,95 -96,274 -143,360 -66,120 -125,188 -220,284 -85,86 -182,131 -299,157 -23,6 -141,24 -153,42 -5,8 5,35 9,43 22,51 214,-2 249,-15 187,-72 343,-219 449,-388 70,-114 120,-225 164,-350 20,-59 45,-153 100,-187 58,-36 139,-9 196,11l23 9 0 24zm-1615 29c-11,112 -156,363 -225,456 -189,251 -427,420 -750,418 -94,-1 -179,-16 -272,-31 -17,-3 -97,-17 -110,-1 -14,16 -9,49 6,63 15,14 82,28 104,33 354,82 673,-10 942,-249 104,-93 196,-237 267,-358 15,-26 28,-52 40,-79 24,-51 85,-239 135,-258 42,-15 120,-5 165,-1l33 2 -1 33c-11,376 -234,790 -552,996 -416,270 -792,226 -1258,194l-32 -2 0 -959 46 18c95,36 131,84 243,92 283,22 419,-198 563,-398l9 -11 14 -3c72,-10 208,-5 268,38l19 13 -6 23c-49,195 -222,391 -403,475 -71,32 -140,52 -218,58 -45,4 -97,2 -140,12 -31,7 -45,49 -21,74 26,28 117,13 152,9 156,-15 315,-75 435,-178 102,-88 181,-185 234,-309 25,-57 50,-157 99,-195 52,-41 129,-26 188,-11l28 7 -2 29zm-1012 222c-89,73 -253,68 -343,0l-83 -61 499 1 -73 60zm1765 -3c-54,52 -55,82 -139,111 -84,28 -125,-2 -197,-34l-23 -11 16 -123 404 -1 -61 58zm-3377 1331l-1 1020c0,97 -33,302 46,372l64 57 -32 25c-50,38 -108,73 -152,118 -23,24 -46,47 -70,71l-124 122 0 -3322 1293 1 0 34c0,345 3,691 3,1037 0,226 0,451 -1,677 0,112 5,251 -6,361l-3 32 -32 -1c-87,-2 -178,3 -265,11 -81,8 -163,32 -243,35l-36 2 0 -229c0,-231 0,-462 0,-694 0,-50 32,-237 -49,-230 -71,6 -42,183 -42,230l1 1043c8,94 102,100 145,183l18 34 -423 165 0 -1115c0,-133 -83,-88 -91,-39z"/>
     </g>
     <path class="fil1" d="M6096 19439c15,0 15,26 0,26 -87,0 -175,-9 -262,-9 -35,0 -78,2 -128,4 -47,3 -85,5 -113,5 -6,0 -9,-5 -9,-13 0,-8 3,-13 9,-13 36,0 62,-4 78,-11 17,-8 25,-22 25,-41 0,-24 -14,-64 -42,-120l-140 -275 -522 0 -79 175c-69,153 -5,272 170,272 14,0 14,26 0,26 -25,0 -62,-2 -109,-5 -53,-2 -99,-4 -139,-4 -37,0 -83,2 -136,4 -48,3 -86,5 -115,5 -6,0 -9,-5 -9,-13 0,-8 3,-13 9,-13 87,0 132,-39 178,-110 27,-41 58,-102 94,-183l456 -1001c5,-9 34,-9 37,0l525 1032c49,99 89,168 122,206 32,37 65,56 100,56zm-611 -505l-247 -487c-79,177 -147,327 -220,487l467 0z"/>
    </g>
   </g>
   <path class="fil3" d="M10500 5060c5407,0 9790,4383 9790,9790 0,5407 -4383,9790 -9790,9790 -5407,0 -9790,-4383 -9790,-9790 0,-5407 4383,-9790 9790,-9790zm0 307c5237,0 9483,4246 9483,9483 0,5237 -4246,9483 -9483,9483 -5237,0 -9483,-4246 -9483,-9483 0,-5237 4246,-9483 9483,-9483z"/>
  </g>
 </g>
</svg>
