<!-- icon666.com - MILLIONS vector ICONS FREE --><svg id="Layer_1" enable-background="new 0 0 512 512" viewBox="0 0 512 512" xmlns="http://www.w3.org/2000/svg"><path d="m256 0c-68.38 0-132.667 26.629-181.019 74.98-48.352 48.353-74.981 112.64-74.981 181.02 0 24.588 6.15 55.879 16.052 81.66 8.585 22.357 23.755 50.754 47.266 59.068 12.81 4.534 32.345 4.307 55.095-19.864 8.978 13.699 21.379 22.787 37.092 27.134 7.097 1.963 14.487 2.816 21.98 2.816 25.896 0 52.979-10.2 73.071-20.038 29.22-14.308 59.122-35.311 79.988-56.186 20.469-20.477 41.964-51.048 56.097-79.782 12.781-25.987 26.176-63.609 17.411-95.266-6.967-25.16-26.14-41.833-56.986-49.556-11.481-2.881-23.172 2.078-29.092 12.331l-27.642 47.876c-6.019 10.427-4.344 23.151 4.169 31.664l14.999 14.999c3.119 3.118 3.906 7.385 2.105 11.411-18.172 40.629-46.756 69.213-87.384 87.385-4.026 1.801-8.292 1.014-11.412-2.106l-14.999-14.996c-8.514-8.515-21.239-10.191-31.664-4.168l-47.876 27.641c-10.253 5.92-15.208 17.611-12.33 29.094 1.294 5.167 2.848 9.999 4.646 14.508-15.058 17.798-29.157 24.535-41.932 20.021-13.857-4.901-27.233-22.559-37.665-49.72-9.245-24.075-14.989-53.168-14.989-75.926 0-132.337 107.664-240 240-240s240 107.663 240 240-107.664 240-240 240c-54.005 0-105.003-17.513-147.479-50.646-3.483-2.718-8.51-2.097-11.229 1.388-2.717 3.483-2.096 8.511 1.388 11.228 45.315 35.346 99.715 54.03 157.32 54.03 68.38 0 132.667-26.629 181.019-74.98 48.352-48.353 74.981-112.64 74.981-181.02s-26.628-132.667-74.98-181.02c-48.353-48.351-112.64-74.98-181.02-74.98zm-129.73 331.879 47.877-27.642c1.661-.959 3.438-1.43 5.188-1.43 2.602 0 5.145 1.039 7.161 3.056l14.999 14.998c7.758 7.76 19.244 9.879 29.258 5.398 44.382-19.851 75.606-51.075 95.458-95.458 4.479-10.016 2.36-21.5-5.397-29.258l-14.999-14.999c-3.372-3.372-4.01-8.22-1.626-12.35l27.642-47.876c2.346-4.063 6.798-5.951 11.349-4.811 25.195 6.308 40.063 18.838 45.454 38.305 12.739 46.004-32.122 122.171-69.403 159.468v-.001c-37.232 37.247-113.358 82.047-159.458 69.298-19.485-5.391-32.017-20.225-38.311-45.352-1.142-4.546.746-9 4.808-11.346z"></path></svg>