<!-- icon666.com - MILLIONS vector ICONS FREE --><svg id="Layer_1" enable-background="new 0 0 512 512" viewBox="0 0 512 512" xmlns="http://www.w3.org/2000/svg"><path d="m250.435 454.419c2.099 0 4.086-.953 5.396-2.59l2.392-2.982c48.162-60.004 160.946-200.527 160.946-280.11 0-93.041-75.694-168.737-168.734-168.737s-168.735 75.696-168.735 168.736c0 70.459 87.293 188.302 163.338 283.092 1.311 1.638 3.298 2.591 5.397 2.591zm0-440.581c85.41 0 154.896 69.486 154.896 154.899 0 73.176-106.131 206.919-154.892 267.705-47.27-59.025-154.901-195.957-154.901-267.705 0-85.413 69.487-154.899 154.897-154.899zm103.018 154.703c0-56.804-46.212-103.018-103.018-103.018-56.802 0-103.014 46.214-103.014 103.018s46.212 103.016 103.014 103.016c56.806-.001 103.018-46.212 103.018-103.016zm-103.018 89.177c-49.171 0-89.176-40.005-89.176-89.178s40.005-89.18 89.176-89.18c49.176 0 89.18 40.007 89.18 89.18s-40.005 89.178-89.18 89.178zm217.049 182.847c0 46.399-108.959 71.435-211.482 71.435s-211.486-25.036-211.486-71.435c0-28.097 43.14-52.016 115.396-63.982 3.748-.61 7.333 1.923 7.955 5.696.626 3.77-1.923 7.331-5.694 7.957-71.716 11.876-103.82 33.836-103.82 50.329 0 27.243 81.171 57.597 197.649 57.597 116.473 0 197.644-30.354 197.644-57.597 0-17.056-35.509-40.552-113.473-51.827-3.779-.547-6.405-4.056-5.856-7.838.541-3.782 4.027-6.414 7.838-5.856 78.478 11.35 125.329 35.843 125.329 65.521z"></path></svg>